<svg width="18" height="17" viewBox="0 0 18 17" fill="none" xmlns="http://www.w3.org/2000/svg">
<g clip-path="url(#clip0_183_776)">
<path d="M16.9808 0.306708C16.9151 0.212135 16.8271 0.13481 16.7245 0.0813831C16.6219 0.0279564 16.5078 2.79172e-05 16.3919 0L8.70872 0C7.52658 0 6.56458 0.953417 6.56458 2.125V2.67679L6.65106 2.74762L9.50991 5.58096C9.91516 5.98187 10.1381 6.51596 10.1381 7.08333C10.1381 7.65071 9.91516 8.18479 9.50991 8.58571L6.65106 11.419L6.56458 11.4899V12.75C6.56458 13.9216 7.52658 14.875 8.70872 14.875H11.2102C11.355 14.8751 11.4963 14.8316 11.6155 14.7502C11.7347 14.6689 11.8262 14.5536 11.8778 14.4195L17.0594 0.961208C17.1008 0.853968 17.1153 0.73836 17.1016 0.624343C17.0879 0.510326 17.0465 0.401318 16.9808 0.306708Z" fill="#2196F3"/>
<path d="M14.7023 7.08334H10.1381C10.1381 7.65072 9.91516 8.1848 9.50991 8.58572L6.65106 11.4191L6.56458 11.4899V12.75C6.56458 13.9216 7.52658 14.875 8.70872 14.875H11.2102C11.355 14.8751 11.4963 14.8316 11.6155 14.7502C11.7347 14.6689 11.8262 14.5536 11.8778 14.4196L14.7023 7.08334Z" fill="#1D83D4"/>
<path d="M4.86141 10.5712C4.73096 10.5174 4.61948 10.4265 4.54101 10.31C4.46254 10.1936 4.42059 10.0567 4.42044 9.91666V7.79166H1.56158C1.37202 7.79166 1.19023 7.71703 1.0562 7.58419C0.922163 7.45136 0.846863 7.27119 0.846863 7.08333C0.846863 6.89546 0.922163 6.7153 1.0562 6.58246C1.19023 6.44962 1.37202 6.37499 1.56158 6.37499H4.42044V4.24999C4.42114 4.11022 4.46347 3.97377 4.54212 3.85774C4.62077 3.74172 4.73224 3.6513 4.86254 3.59781C4.99284 3.54433 5.13617 3.53016 5.27456 3.55709C5.41295 3.58403 5.54024 3.65086 5.64045 3.7492L8.49931 6.58254C8.56574 6.64826 8.61844 6.72632 8.6544 6.81225C8.69036 6.89818 8.70887 6.9903 8.70887 7.08333C8.70887 7.17635 8.69036 7.26847 8.6544 7.3544C8.61844 7.44033 8.56574 7.51839 8.49931 7.58412L5.64045 10.4175C5.5405 10.5166 5.41314 10.5841 5.27446 10.6114C5.13579 10.6388 4.99205 10.6248 4.86141 10.5712Z" fill="white"/>
<path d="M16.1153 0.0701276L11.8213 1.48892C11.5389 1.5854 11.2938 1.76674 11.1202 2.0077C10.9466 2.24867 10.8532 2.53727 10.8528 2.83334V15.5833C10.8528 16.3646 11.4939 17 12.2823 17C12.4352 17 12.5803 16.978 12.7375 16.9299L17.0316 15.5111C17.314 15.4146 17.559 15.2333 17.7326 14.9923C17.9062 14.7513 17.9997 14.4627 18 14.1667V1.41667C18 0.483794 17.0844 -0.225247 16.1153 0.0701276Z" fill="#64B5F6"/>
<path d="M8.70872 7.08334H0.846863C0.846863 7.27121 0.922163 7.45137 1.0562 7.58421C1.19023 7.71705 1.37202 7.79168 1.56158 7.79168H4.42044V9.91668C4.42114 10.0564 4.46347 10.1929 4.54212 10.3089C4.62077 10.4249 4.73224 10.5154 4.86254 10.5689C4.99284 10.6223 5.13617 10.6365 5.27456 10.6096C5.41295 10.5826 5.54024 10.5158 5.64045 10.4175L8.49931 7.58413C8.56578 7.51845 8.6185 7.44039 8.65443 7.35445C8.69037 7.2685 8.70882 7.17637 8.70872 7.08334Z" fill="white"/>
<path d="M10.8528 8.5H18V14.1667C18 14.7723 17.6105 15.312 17.0323 15.5111L12.7375 16.9299C12.5803 16.978 12.4352 17 12.2823 17C11.4939 17 10.8528 16.3646 10.8528 15.5833V8.5Z" fill="#579ED6"/>
</g>
<defs>
<clipPath id="clip0_183_776">
<rect width="17.1532" height="17" fill="white" transform="translate(0.846863)"/>
</clipPath>
</defs>
</svg>
