<svg width="16" height="16" viewBox="0 0 16 16" fill="none" xmlns="http://www.w3.org/2000/svg">
<g clip-path="url(#clip0_286_184)">
<path d="M4.59544 3.63637C3.30356 6.89071 3.21622 10.5677 4.80425 13.5758H14.0606C15.1318 13.5758 16 12.7076 16 11.6364V3.63637C15.752 2.93968 4.9265 2.92518 4.59544 3.63637Z" fill="#DEF5FF"/>
<path d="M4.59544 3.63636C3.01556 2.97592 1.47741 2.88886 0 3.63636V11.6364C0 12.7075 0.868188 13.5758 1.93941 13.5758H4.80428C4.14119 10.4257 4.05241 6.77623 4.59544 3.63636Z" fill="#C4E8FE"/>
<path d="M14.0606 0H5.62646C4.47559 1.02219 4.01165 2.25553 4.59543 3.63637H16V1.93941C16 0.868188 15.1318 0 14.0606 0Z" fill="#565F85"/>
<path d="M1.93941 0C0.868187 0 0 0.868188 0 1.93941V3.63637H4.59544C4.83425 2.25547 5.18591 1.02213 5.62647 0H1.93941Z" fill="#3D3E65"/>
<path d="M10.1896 14.8228V6.0257C10.1896 5.37536 9.66269 4.84848 9.01235 4.84848H4.41966C3.15807 8.36654 3.31685 12.5994 5.46394 16H9.01238C9.66272 16 10.1896 15.4731 10.1896 14.8228Z" fill="#7ADDFF"/>
<path d="M4.41966 4.84851H3.12438C2.47403 4.84851 1.94716 5.37539 1.94716 6.02573V14.8228C1.94716 15.4731 2.47403 16 3.12438 16H5.46394C4.30132 12.6041 4.00291 8.37035 4.41966 4.84851Z" fill="#21CBFC"/>
<path d="M8.97747 6.78788C8.97747 6.52026 8.76025 6.30304 8.49263 6.30304H4.72728C4.20203 6.30304 4.07275 6.52026 4.07275 6.78788C4.07275 7.05551 4.07275 7.27273 4.72728 7.27273H8.49263C8.75982 7.27273 8.97747 7.05554 8.97747 6.78788Z" fill="#FAE27A"/>
<path d="M4.24244 6.78788C4.24244 6.5202 4.45966 6.30304 4.72729 6.30304H3.64413C3.37641 6.30304 3.15929 6.52026 3.15929 6.78788C3.15929 7.05551 3.37616 7.27273 3.64413 7.27273H4.72729C4.45932 7.27273 4.24244 7.05554 4.24244 6.78788Z" fill="#FFD05C"/>
<path d="M2.24635 2.24676C2.48303 2.01008 2.48303 1.62634 2.24635 1.38966C2.00966 1.15297 1.62593 1.15297 1.38924 1.38966C1.15256 1.62634 1.15256 2.01008 1.38924 2.24676C1.62593 2.48344 2.00966 2.48344 2.24635 2.24676Z" fill="#55E579"/>
<path d="M4.83282 1.95909C4.90982 1.63335 4.70818 1.30686 4.38243 1.22986C4.05669 1.15286 3.73021 1.3545 3.6532 1.68024C3.5762 2.00598 3.77784 2.33247 4.10359 2.40947C4.42933 2.48648 4.75582 2.28483 4.83282 1.95909Z" fill="#FAE27A"/>
<path d="M6.90909 2.42425C7.24381 2.42425 7.51515 2.15291 7.51515 1.81819C7.51515 1.48347 7.24381 1.21213 6.90909 1.21213C6.57437 1.21213 6.30302 1.48347 6.30302 1.81819C6.30302 2.15291 6.57437 2.42425 6.90909 2.42425Z" fill="#FF8B8B"/>
<path d="M14.7879 1.81819C14.7879 1.48332 14.5167 1.21213 14.1818 1.21213H10.548C9.84647 1.21213 9.80972 1.48332 9.80972 1.81819C9.80972 2.15307 9.82629 2.42425 10.548 2.42425H14.1818C14.5166 2.42425 14.7879 2.15307 14.7879 1.81819Z" fill="#DEF5FF"/>
<path d="M9.9419 1.81819C9.9419 1.48338 10.2131 1.21213 10.548 1.21213H9.33334C8.99853 1.21213 8.72728 1.48332 8.72728 1.81819C8.72728 2.15307 8.99847 2.42425 9.33334 2.42425H10.548C10.2131 2.42425 9.9419 2.15307 9.9419 1.81819Z" fill="#C4E8FE"/>
<path d="M8.97746 8.96968C9.04176 8.96968 9.10343 8.94413 9.14889 8.89867C9.19436 8.8532 9.2199 8.79154 9.2199 8.72724C9.2199 8.66294 9.19436 8.60128 9.14889 8.55581C9.10343 8.51034 9.04176 8.4848 8.97746 8.4848H4.2455C4.05981 8.64536 4.06306 8.80705 4.2585 8.96965H8.97746V8.96968Z" fill="#21CBFC"/>
<path d="M3.15929 8.72727C3.15929 8.79157 3.18483 8.85323 3.23029 8.8987C3.27576 8.94416 3.33743 8.96971 3.40172 8.96971H4.25851C4.25282 8.80813 4.24849 8.64651 4.24551 8.48486H3.40169C3.36986 8.48486 3.33833 8.49113 3.30892 8.50331C3.27951 8.51549 3.25279 8.53334 3.23028 8.55585C3.20777 8.57836 3.18991 8.60509 3.17773 8.6345C3.16555 8.66391 3.15928 8.69544 3.15929 8.72727Z" fill="#21B8FC"/>
<path d="M9.4219 9.93939H4.30837C3.98275 10.1 3.99303 10.2616 4.34565 10.4242H9.4219C9.48572 10.4235 9.54668 10.3977 9.59155 10.3523C9.63642 10.3069 9.66159 10.2456 9.66159 10.1818C9.66159 10.118 9.63642 10.0567 9.59155 10.0114C9.54668 9.96598 9.48572 9.94012 9.4219 9.93939Z" fill="#21CBFC"/>
<path d="M3.40169 9.93939C3.33739 9.93939 3.27573 9.96493 3.23026 10.0104C3.1848 10.0559 3.15926 10.1175 3.15926 10.1818C3.15926 10.2461 3.1848 10.3078 3.23026 10.3533C3.27573 10.3987 3.33739 10.4243 3.40169 10.4243H4.34566C4.33191 10.2636 4.31947 10.102 4.30838 9.93942H3.40169V9.93939Z" fill="#21B8FC"/>
<path d="M8.27343 11.8788C8.33725 11.8781 8.39821 11.8522 8.44308 11.8068C8.48795 11.7614 8.51312 11.7002 8.51312 11.6364C8.51312 11.5726 8.48795 11.5113 8.44308 11.4659C8.39821 11.4205 8.33725 11.3947 8.27343 11.394H4.44565C4.24403 11.5684 4.28143 11.7292 4.50874 11.8788H8.27343Z" fill="#21CBFC"/>
<path d="M3.15929 11.6364C3.15929 11.7007 3.18483 11.7624 3.23029 11.8078C3.27576 11.8533 3.33743 11.8788 3.40172 11.8788H4.50879C4.48628 11.7174 4.46525 11.5558 4.44569 11.394H3.40172C3.36989 11.394 3.33836 11.4002 3.30894 11.4124C3.27953 11.4246 3.2528 11.4425 3.23029 11.465C3.20777 11.4875 3.18992 11.5142 3.17773 11.5436C3.16555 11.573 3.15928 11.6046 3.15929 11.6364Z" fill="#21B8FC"/>
<path d="M8.00404 13.3334L8.27476 12.9091L8.06626 12.8485H4.6631C4.34651 13.0544 4.45263 13.2068 4.75485 13.3334H8.00404Z" fill="#21CBFC"/>
<path d="M3.15929 13.0909C3.15929 13.1552 3.18483 13.2169 3.23029 13.2623C3.27576 13.3078 3.33743 13.3334 3.40172 13.3334H4.75488C4.72268 13.172 4.6921 13.0104 4.66313 12.8485H3.40172C3.36989 12.8485 3.33836 12.8548 3.30894 12.8669C3.27953 12.8791 3.2528 12.897 3.23029 12.9195C3.20777 12.942 3.18992 12.9687 3.17773 12.9981C3.16555 13.0276 3.15928 13.0591 3.15929 13.0909Z" fill="#21B8FC"/>
<path d="M6.31077 14.7879C6.37507 14.7879 6.43674 14.7623 6.4822 14.7169C6.52767 14.6714 6.55321 14.6097 6.55321 14.5454C6.55321 14.4811 6.52767 14.4195 6.4822 14.374C6.43674 14.3286 6.37507 14.303 6.31077 14.303H4.9699C4.70581 14.4669 4.75177 14.6285 5.09474 14.7879H6.31077V14.7879Z" fill="#21CBFC"/>
<path d="M3.15929 14.5454C3.15929 14.6097 3.18483 14.6714 3.23029 14.7169C3.27576 14.7623 3.33743 14.7879 3.40172 14.7879H5.09479C5.05128 14.6268 5.00966 14.4651 4.96994 14.303H3.40172C3.36989 14.303 3.33836 14.3093 3.30895 14.3215C3.27954 14.3337 3.25281 14.3515 3.2303 14.374C3.20778 14.3965 3.18993 14.4233 3.17774 14.4527C3.16556 14.4821 3.15929 14.5136 3.15929 14.5454Z" fill="#21B8FC"/>
<path d="M12.8486 8.51788L13.5923 7.56047L13.2477 6.87541L12.633 6.815C12.1355 7.05291 12.0141 7.28107 11.8892 7.77219L12.1424 8.32363L12.8486 8.51788Z" fill="#7ADDFF"/>
<path d="M12.0612 6.37062L11.3174 7.32772L11.48 7.79434L11.8892 7.77215L12.633 6.81497L12.5223 6.36862L12.0612 6.37062Z" fill="#21CBFC"/>
<path d="M13.9615 6.0938C13.4475 5.77412 13.0758 5.61302 12.7243 6.25896L12.633 6.81499L13.5923 7.56046L13.89 7.17774C14.1376 6.85905 14.1577 6.43015 13.9615 6.0938Z" fill="#FF8B8B"/>
<path d="M13.9615 6.0938C13.8993 5.98687 13.817 5.89289 13.7193 5.81696C13.2962 5.48855 12.6873 5.56483 12.3585 5.98796L12.0612 6.37068L12.633 6.81502L12.9308 6.4318C13.1807 6.11011 13.5925 5.98914 13.9615 6.0938Z" fill="#FD5E5E"/>
<path d="M11.8892 7.77216L10.221 9.42259L8.91463 11.6002L9.87422 12.3458C9.89013 12.3253 9.75697 12.4966 12.8486 8.51787L11.8892 7.77216Z" fill="#FAE27A"/>
<path d="M11.3174 7.32773L8.34238 11.1564L8.91463 11.6003L11.8892 7.77217L11.3174 7.32773Z" fill="#FFD05C"/>
<path d="M9.87322 12.3459L8.0466 13.3226C7.95981 13.369 7.85866 13.2919 7.88038 13.1959L8.34175 11.1561C9.22528 11.0414 9.74378 11.427 9.87322 12.3459Z" fill="#565F85"/>
</g>
<defs>
<clipPath id="clip0_286_184">
<rect width="16" height="16" fill="white"/>
</clipPath>
</defs>
</svg>
