<svg width="17" height="17" viewBox="0 0 17 17" fill="none" xmlns="http://www.w3.org/2000/svg">
<g clip-path="url(#clip0_1742_3024)">
<path d="M16.796 8.65904C16.796 7.96256 16.7395 7.45431 16.6172 6.92725H8.66406V10.0708H13.3324C13.2383 10.852 12.73 12.0285 11.6006 12.8191L11.5848 12.9244L14.0994 14.8724L14.2736 14.8898C15.8736 13.4121 16.796 11.2379 16.796 8.65904Z" fill="#4285F4"/>
<path d="M8.66102 16.9416C10.9481 16.9416 12.8681 16.1886 14.2706 14.8898L11.5975 12.8191C10.8822 13.3179 9.9222 13.6662 8.66102 13.6662C6.42098 13.6662 4.51977 12.1885 3.84204 10.1461L3.7427 10.1546L1.12794 12.1782L1.09375 12.2732C2.48671 15.0403 5.34797 16.9416 8.66102 16.9416Z" fill="#34A853"/>
<path d="M3.84713 10.1461C3.66831 9.61907 3.56482 9.05431 3.56482 8.47079C3.56482 7.88721 3.66831 7.32251 3.83773 6.79545L3.83299 6.6832L1.18547 4.62711L1.09884 4.66831C0.524736 5.81659 0.195312 7.10606 0.195312 8.47079C0.195312 9.83553 0.524736 11.1249 1.09884 12.2732L3.84713 10.1461Z" fill="#FBBC05"/>
<path d="M8.66102 3.27535C10.2516 3.27535 11.3246 3.96243 11.9364 4.5366L14.327 2.20241C12.8588 0.837672 10.9481 0 8.66102 0C5.34797 0 2.48671 1.90121 1.09375 4.66832L3.83263 6.79546C4.51977 4.75306 6.42098 3.27535 8.66102 3.27535Z" fill="#EB4335"/>
</g>
<defs>
<clipPath id="clip0_1742_3024">
<rect width="17" height="17" fill="white"/>
</clipPath>
</defs>
</svg>
