<svg width="18" height="15" viewBox="0 0 18 15" fill="none" xmlns="http://www.w3.org/2000/svg">
<path d="M14.8479 4.73808H11.5985V0.441C11.5985 0.197448 11.796 3.05176e-05 12.0395 3.05176e-05H14.4069C14.6505 3.05176e-05 14.8479 0.197482 14.8479 0.441V4.73808H14.8479Z" fill="url(#paint0_linear_286_156)"/>
<path d="M14.8479 4.73808H11.5985V0.441C11.5985 0.197448 11.796 3.05176e-05 12.0395 3.05176e-05H14.4069C14.6505 3.05176e-05 14.8479 0.197482 14.8479 0.441V4.73808H14.8479Z" fill="url(#paint1_linear_286_156)"/>
<path d="M14.848 0.440991V4.73794H12.8464V0.00012207H14.4071C14.6503 0.00012207 14.848 0.19737 14.848 0.440991Z" fill="url(#paint2_linear_286_156)"/>
<path d="M14.9415 5.77551V14.1722C14.9415 14.6294 14.5709 15 14.1137 15H3.19113C2.73397 15 2.36337 14.6294 2.36337 14.1722V5.77551L6.89427 2.42184H10.4106L14.9415 5.77551Z" fill="url(#paint3_linear_286_156)"/>
<path d="M2.36337 9.46558V14.1722C2.36337 14.6294 2.73397 15 3.19113 15H14.1137C14.5709 15 14.9415 14.6294 14.9415 14.1722V9.46558H2.36337Z" fill="url(#paint4_linear_286_156)"/>
<path d="M14.9417 5.77551V9.46547H2.36325V5.77551L6.89446 2.42178H10.4105L14.9417 5.77551Z" fill="url(#paint5_linear_286_156)"/>
<path d="M2.36325 5.77551V9.46547H14.9417V5.77551L10.4105 2.42178H6.89446L2.36325 5.77551Z" fill="url(#paint6_linear_286_156)"/>
<path d="M8.65244 2.42184V15H14.1137C14.5709 15 14.9415 14.6294 14.9415 14.1722V5.77551L10.4106 2.42184H8.65244Z" fill="url(#paint7_linear_286_156)"/>
<path d="M8.99743 2.69364L15.4964 7.50403C16.0277 7.89731 16.7814 7.75451 17.1321 7.19416C17.4461 6.69239 17.3213 6.03352 16.8455 5.68134L9.58572 0.307837C9.03122 -0.102612 8.27366 -0.102612 7.71913 0.307837L0.459366 5.68134C-0.0164169 6.03348 -0.141235 6.69239 0.172788 7.19416C0.523448 7.75451 1.27716 7.89731 1.80847 7.50403L8.30746 2.69364C8.4073 2.61974 8.52823 2.57986 8.65244 2.57986C8.77666 2.57986 8.89759 2.61974 8.99743 2.69364Z" fill="url(#paint8_linear_286_156)"/>
<path d="M8.99743 2.69364L15.4964 7.50403C16.0277 7.89731 16.7814 7.75451 17.1321 7.19416C17.4461 6.69239 17.3213 6.03352 16.8455 5.68134L9.58572 0.307837C9.03122 -0.102612 8.27366 -0.102612 7.71913 0.307837L0.459366 5.68134C-0.0164169 6.03348 -0.141235 6.69239 0.172788 7.19416C0.523448 7.75451 1.27716 7.89731 1.80847 7.50403L8.30746 2.69364C8.4073 2.61974 8.52823 2.57986 8.65244 2.57986C8.77666 2.57986 8.89759 2.61974 8.99743 2.69364Z" fill="url(#paint9_linear_286_156)"/>
<path d="M17.1276 7.20097L9.58571 1.61869C9.03121 1.20828 8.27365 1.20828 7.71912 1.61869L0.177307 7.20097C0.529826 7.75553 1.27938 7.89563 1.80846 7.504L8.30745 2.69362C8.40729 2.61972 8.52822 2.57984 8.65243 2.57984C8.77665 2.57984 8.89758 2.61972 8.99742 2.69362L15.4964 7.504C16.0255 7.89563 16.775 7.7555 17.1276 7.20097Z" fill="url(#paint10_linear_286_156)"/>
<path d="M11.5985 4.61887L15.4964 7.50399C16.0277 7.89727 16.7814 7.75447 17.132 7.19412C17.446 6.69235 17.3212 6.03348 16.8455 5.6813L13.2197 2.99759L11.5985 4.61887Z" fill="url(#paint11_linear_286_156)"/>
<path d="M5.7064 4.61887L1.80848 7.50402C1.27716 7.8973 0.523454 7.7545 0.172794 7.19415C-0.141194 6.69238 -0.0163762 6.03351 0.459372 5.68133L4.08511 2.99762L5.7064 4.61887Z" fill="url(#paint12_linear_286_156)"/>
<path d="M7.85098 9.07176H6.08537C5.87606 9.07176 5.70639 8.90209 5.70639 8.69277V6.92717C5.70639 6.71786 5.87606 6.54819 6.08537 6.54819H7.85098C8.06029 6.54819 8.22996 6.71786 8.22996 6.92717V8.69277C8.22996 8.90205 8.06029 9.07176 7.85098 9.07176Z" fill="url(#paint13_linear_286_156)"/>
<path d="M7.85098 9.07176H6.08537C5.87606 9.07176 5.70639 8.90209 5.70639 8.69277V6.92717C5.70639 6.71786 5.87606 6.54819 6.08537 6.54819H7.85098C8.06029 6.54819 8.22996 6.71786 8.22996 6.92717V8.69277C8.22996 8.90205 8.06029 9.07176 7.85098 9.07176Z" fill="url(#paint14_linear_286_156)"/>
<path d="M7.85098 9.07176H6.08537C5.87606 9.07176 5.70639 8.90209 5.70639 8.69277V6.92717C5.70639 6.71786 5.87606 6.54819 6.08537 6.54819H7.85098C8.06029 6.54819 8.22996 6.71786 8.22996 6.92717V8.69277C8.22996 8.90205 8.06029 9.07176 7.85098 9.07176Z" fill="url(#paint15_linear_286_156)"/>
<path d="M11.2195 9.07176H9.4539C9.24459 9.07176 9.07492 8.90209 9.07492 8.69277V6.92717C9.07492 6.71786 9.24459 6.54819 9.4539 6.54819H11.2195C11.4288 6.54819 11.5985 6.71786 11.5985 6.92717V8.69277C11.5985 8.90205 11.4288 9.07176 11.2195 9.07176Z" fill="url(#paint16_linear_286_156)"/>
<path d="M11.2195 9.07176H9.4539C9.24459 9.07176 9.07492 8.90209 9.07492 8.69277V6.92717C9.07492 6.71786 9.24459 6.54819 9.4539 6.54819H11.2195C11.4288 6.54819 11.5985 6.71786 11.5985 6.92717V8.69277C11.5985 8.90205 11.4288 9.07176 11.2195 9.07176Z" fill="url(#paint17_linear_286_156)"/>
<path d="M11.2195 9.07176H9.4539C9.24459 9.07176 9.07492 8.90209 9.07492 8.69277V6.92717C9.07492 6.71786 9.24459 6.54819 9.4539 6.54819H11.2195C11.4288 6.54819 11.5985 6.71786 11.5985 6.92717V8.69277C11.5985 8.90205 11.4288 9.07176 11.2195 9.07176Z" fill="url(#paint18_linear_286_156)"/>
<path d="M7.85098 12.3828H6.08537C5.87606 12.3828 5.70639 12.2131 5.70639 12.0038V10.2382C5.70639 10.0289 5.87606 9.85919 6.08537 9.85919H7.85098C8.06029 9.85919 8.22996 10.0289 8.22996 10.2382V12.0038C8.22996 12.2131 8.06029 12.3828 7.85098 12.3828Z" fill="url(#paint19_linear_286_156)"/>
<path d="M7.85098 12.3828H6.08537C5.87606 12.3828 5.70639 12.2131 5.70639 12.0038V10.2382C5.70639 10.0289 5.87606 9.85919 6.08537 9.85919H7.85098C8.06029 9.85919 8.22996 10.0289 8.22996 10.2382V12.0038C8.22996 12.2131 8.06029 12.3828 7.85098 12.3828Z" fill="url(#paint20_linear_286_156)"/>
<path d="M7.85098 12.3828H6.08537C5.87606 12.3828 5.70639 12.2131 5.70639 12.0038V10.2382C5.70639 10.0289 5.87606 9.85919 6.08537 9.85919H7.85098C8.06029 9.85919 8.22996 10.0289 8.22996 10.2382V12.0038C8.22996 12.2131 8.06029 12.3828 7.85098 12.3828Z" fill="url(#paint21_linear_286_156)"/>
<path d="M11.2195 12.3828H9.4539C9.24459 12.3828 9.07492 12.2131 9.07492 12.0038V10.2382C9.07492 10.0289 9.24459 9.85919 9.4539 9.85919H11.2195C11.4288 9.85919 11.5985 10.0289 11.5985 10.2382V12.0038C11.5985 12.2131 11.4288 12.3828 11.2195 12.3828Z" fill="url(#paint22_linear_286_156)"/>
<path d="M11.2195 12.3828H9.4539C9.24459 12.3828 9.07492 12.2131 9.07492 12.0038V10.2382C9.07492 10.0289 9.24459 9.85919 9.4539 9.85919H11.2195C11.4288 9.85919 11.5985 10.0289 11.5985 10.2382V12.0038C11.5985 12.2131 11.4288 12.3828 11.2195 12.3828Z" fill="url(#paint23_linear_286_156)"/>
<path d="M11.2195 12.3828H9.4539C9.24459 12.3828 9.07492 12.2131 9.07492 12.0038V10.2382C9.07492 10.0289 9.24459 9.85919 9.4539 9.85919H11.2195C11.4288 9.85919 11.5985 10.0289 11.5985 10.2382V12.0038C11.5985 12.2131 11.4288 12.3828 11.2195 12.3828Z" fill="url(#paint24_linear_286_156)"/>
<defs>
<linearGradient id="paint0_linear_286_156" x1="11.9624" y1="2.36904" x2="14.8688" y2="2.36904" gradientUnits="userSpaceOnUse">
<stop stop-color="#FFA1AE"/>
<stop offset="1" stop-color="#FF4565"/>
</linearGradient>
<linearGradient id="paint1_linear_286_156" x1="13.9213" y1="1.49497" x2="12.9515" y2="2.92117" gradientUnits="userSpaceOnUse">
<stop stop-color="#FE0364" stop-opacity="0"/>
<stop offset="0.234" stop-color="#F90362" stop-opacity="0.234"/>
<stop offset="0.517" stop-color="#EA035B" stop-opacity="0.517"/>
<stop offset="0.824" stop-color="#D20250" stop-opacity="0.824"/>
<stop offset="1" stop-color="#C00148"/>
</linearGradient>
<linearGradient id="paint2_linear_286_156" x1="13.8081" y1="2.36903" x2="14.8799" y2="2.36903" gradientUnits="userSpaceOnUse">
<stop stop-color="#FE0364" stop-opacity="0"/>
<stop offset="0.234" stop-color="#F90362" stop-opacity="0.234"/>
<stop offset="0.517" stop-color="#EA035B" stop-opacity="0.517"/>
<stop offset="0.824" stop-color="#D20250" stop-opacity="0.824"/>
<stop offset="1" stop-color="#C00148"/>
</linearGradient>
<linearGradient id="paint3_linear_286_156" x1="3.72272" y1="5.2156" x2="11.2493" y2="12.7422" gradientUnits="userSpaceOnUse">
<stop stop-color="#F5FBFF"/>
<stop offset="1" stop-color="#DBD5EF"/>
</linearGradient>
<linearGradient id="paint4_linear_286_156" x1="8.65244" y1="11.9949" x2="8.65244" y2="15.1945" gradientUnits="userSpaceOnUse">
<stop stop-color="#DBD5EF" stop-opacity="0"/>
<stop offset="0.285" stop-color="#D9D2EE" stop-opacity="0.285"/>
<stop offset="0.474" stop-color="#D4C9E9" stop-opacity="0.474"/>
<stop offset="0.635" stop-color="#CBBAE2" stop-opacity="0.635"/>
<stop offset="0.779" stop-color="#BFA5D7" stop-opacity="0.78"/>
<stop offset="0.913" stop-color="#AF8ACA" stop-opacity="0.913"/>
<stop offset="1" stop-color="#A274BF"/>
</linearGradient>
<linearGradient id="paint5_linear_286_156" x1="7.82206" y1="6.39565" x2="6.26235" y2="4.09508" gradientUnits="userSpaceOnUse">
<stop stop-color="#DBD5EF" stop-opacity="0"/>
<stop offset="0.285" stop-color="#D9D2EE" stop-opacity="0.285"/>
<stop offset="0.474" stop-color="#D4C9E9" stop-opacity="0.474"/>
<stop offset="0.635" stop-color="#CBBAE2" stop-opacity="0.635"/>
<stop offset="0.779" stop-color="#BFA5D7" stop-opacity="0.78"/>
<stop offset="0.913" stop-color="#AF8ACA" stop-opacity="0.913"/>
<stop offset="1" stop-color="#A274BF"/>
</linearGradient>
<linearGradient id="paint6_linear_286_156" x1="9.48285" y1="6.39565" x2="11.0426" y2="4.09508" gradientUnits="userSpaceOnUse">
<stop stop-color="#DBD5EF" stop-opacity="0"/>
<stop offset="0.285" stop-color="#D9D2EE" stop-opacity="0.285"/>
<stop offset="0.474" stop-color="#D4C9E9" stop-opacity="0.474"/>
<stop offset="0.635" stop-color="#CBBAE2" stop-opacity="0.635"/>
<stop offset="0.779" stop-color="#BFA5D7" stop-opacity="0.78"/>
<stop offset="0.913" stop-color="#AF8ACA" stop-opacity="0.913"/>
<stop offset="1" stop-color="#A274BF"/>
</linearGradient>
<linearGradient id="paint7_linear_286_156" x1="10.6761" y1="8.71091" x2="15.1262" y2="8.71091" gradientUnits="userSpaceOnUse">
<stop stop-color="#DBD5EF" stop-opacity="0"/>
<stop offset="0.285" stop-color="#D9D2EE" stop-opacity="0.285"/>
<stop offset="0.474" stop-color="#D4C9E9" stop-opacity="0.474"/>
<stop offset="0.635" stop-color="#CBBAE2" stop-opacity="0.635"/>
<stop offset="0.779" stop-color="#BFA5D7" stop-opacity="0.78"/>
<stop offset="0.913" stop-color="#AF8ACA" stop-opacity="0.913"/>
<stop offset="1" stop-color="#A274BF"/>
</linearGradient>
<linearGradient id="paint8_linear_286_156" x1="7.29803" y1="0.0566463" x2="9.09169" y2="8.71307" gradientUnits="userSpaceOnUse">
<stop stop-color="#B3DAFE"/>
<stop offset="1" stop-color="#0182FC"/>
</linearGradient>
<linearGradient id="paint9_linear_286_156" x1="7.29803" y1="0.0566463" x2="9.09169" y2="8.71307" gradientUnits="userSpaceOnUse">
<stop stop-color="#B3DAFE"/>
<stop offset="1" stop-color="#0182FC"/>
</linearGradient>
<linearGradient id="paint10_linear_286_156" x1="8.65243" y1="5.30115" x2="8.65243" y2="-0.107939" gradientUnits="userSpaceOnUse">
<stop stop-color="#314DC9" stop-opacity="0"/>
<stop offset="0.276" stop-color="#304BC4" stop-opacity="0.276"/>
<stop offset="0.563" stop-color="#2B45B8" stop-opacity="0.563"/>
<stop offset="0.854" stop-color="#243BA3" stop-opacity="0.854"/>
<stop offset="1" stop-color="#1F3596"/>
</linearGradient>
<linearGradient id="paint11_linear_286_156" x1="14.979" y1="5.89828" x2="16.9444" y2="7.86364" gradientUnits="userSpaceOnUse">
<stop stop-color="#314DC9" stop-opacity="0"/>
<stop offset="0.276" stop-color="#304BC4" stop-opacity="0.276"/>
<stop offset="0.563" stop-color="#2B45B8" stop-opacity="0.563"/>
<stop offset="0.854" stop-color="#243BA3" stop-opacity="0.854"/>
<stop offset="1" stop-color="#1F3596"/>
</linearGradient>
<linearGradient id="paint12_linear_286_156" x1="2.32583" y1="5.89828" x2="0.360478" y2="7.86363" gradientUnits="userSpaceOnUse">
<stop stop-color="#314DC9" stop-opacity="0"/>
<stop offset="0.276" stop-color="#304BC4" stop-opacity="0.276"/>
<stop offset="0.563" stop-color="#2B45B8" stop-opacity="0.563"/>
<stop offset="0.854" stop-color="#243BA3" stop-opacity="0.854"/>
<stop offset="1" stop-color="#1F3596"/>
</linearGradient>
<linearGradient id="paint13_linear_286_156" x1="6.26082" y1="7.10262" x2="8.18791" y2="9.02971" gradientUnits="userSpaceOnUse">
<stop stop-color="#B3DAFE"/>
<stop offset="1" stop-color="#0182FC"/>
</linearGradient>
<linearGradient id="paint14_linear_286_156" x1="6.96816" y1="7.22352" x2="6.96816" y2="6.33543" gradientUnits="userSpaceOnUse">
<stop stop-color="#314DC9" stop-opacity="0"/>
<stop offset="0.276" stop-color="#304BC4" stop-opacity="0.276"/>
<stop offset="0.563" stop-color="#2B45B8" stop-opacity="0.563"/>
<stop offset="0.854" stop-color="#243BA3" stop-opacity="0.854"/>
<stop offset="1" stop-color="#1F3596"/>
</linearGradient>
<linearGradient id="paint15_linear_286_156" x1="6.53418" y1="7.80996" x2="5.61554" y2="7.80996" gradientUnits="userSpaceOnUse">
<stop stop-color="#314DC9" stop-opacity="0"/>
<stop offset="0.276" stop-color="#304BC4" stop-opacity="0.276"/>
<stop offset="0.563" stop-color="#2B45B8" stop-opacity="0.563"/>
<stop offset="0.854" stop-color="#243BA3" stop-opacity="0.854"/>
<stop offset="1" stop-color="#1F3596"/>
</linearGradient>
<linearGradient id="paint16_linear_286_156" x1="9.62939" y1="7.10262" x2="11.5564" y2="9.02971" gradientUnits="userSpaceOnUse">
<stop stop-color="#B3DAFE"/>
<stop offset="1" stop-color="#0182FC"/>
</linearGradient>
<linearGradient id="paint17_linear_286_156" x1="10.3367" y1="7.22352" x2="10.3367" y2="6.33543" gradientUnits="userSpaceOnUse">
<stop stop-color="#314DC9" stop-opacity="0"/>
<stop offset="0.276" stop-color="#304BC4" stop-opacity="0.276"/>
<stop offset="0.563" stop-color="#2B45B8" stop-opacity="0.563"/>
<stop offset="0.854" stop-color="#243BA3" stop-opacity="0.854"/>
<stop offset="1" stop-color="#1F3596"/>
</linearGradient>
<linearGradient id="paint18_linear_286_156" x1="9.90272" y1="7.80996" x2="8.98407" y2="7.80996" gradientUnits="userSpaceOnUse">
<stop stop-color="#314DC9" stop-opacity="0"/>
<stop offset="0.276" stop-color="#304BC4" stop-opacity="0.276"/>
<stop offset="0.563" stop-color="#2B45B8" stop-opacity="0.563"/>
<stop offset="0.854" stop-color="#243BA3" stop-opacity="0.854"/>
<stop offset="1" stop-color="#1F3596"/>
</linearGradient>
<linearGradient id="paint19_linear_286_156" x1="6.26082" y1="10.4136" x2="8.18792" y2="12.3407" gradientUnits="userSpaceOnUse">
<stop stop-color="#B3DAFE"/>
<stop offset="1" stop-color="#0182FC"/>
</linearGradient>
<linearGradient id="paint20_linear_286_156" x1="6.96816" y1="10.5346" x2="6.96816" y2="9.64646" gradientUnits="userSpaceOnUse">
<stop stop-color="#314DC9" stop-opacity="0"/>
<stop offset="0.276" stop-color="#304BC4" stop-opacity="0.276"/>
<stop offset="0.563" stop-color="#2B45B8" stop-opacity="0.563"/>
<stop offset="0.854" stop-color="#243BA3" stop-opacity="0.854"/>
<stop offset="1" stop-color="#1F3596"/>
</linearGradient>
<linearGradient id="paint21_linear_286_156" x1="6.53418" y1="11.121" x2="5.61554" y2="11.121" gradientUnits="userSpaceOnUse">
<stop stop-color="#314DC9" stop-opacity="0"/>
<stop offset="0.276" stop-color="#304BC4" stop-opacity="0.276"/>
<stop offset="0.563" stop-color="#2B45B8" stop-opacity="0.563"/>
<stop offset="0.854" stop-color="#243BA3" stop-opacity="0.854"/>
<stop offset="1" stop-color="#1F3596"/>
</linearGradient>
<linearGradient id="paint22_linear_286_156" x1="9.62939" y1="10.4136" x2="11.5564" y2="12.3407" gradientUnits="userSpaceOnUse">
<stop stop-color="#B3DAFE"/>
<stop offset="1" stop-color="#0182FC"/>
</linearGradient>
<linearGradient id="paint23_linear_286_156" x1="10.3367" y1="10.5346" x2="10.3367" y2="9.64646" gradientUnits="userSpaceOnUse">
<stop stop-color="#314DC9" stop-opacity="0"/>
<stop offset="0.276" stop-color="#304BC4" stop-opacity="0.276"/>
<stop offset="0.563" stop-color="#2B45B8" stop-opacity="0.563"/>
<stop offset="0.854" stop-color="#243BA3" stop-opacity="0.854"/>
<stop offset="1" stop-color="#1F3596"/>
</linearGradient>
<linearGradient id="paint24_linear_286_156" x1="9.90272" y1="11.121" x2="8.98407" y2="11.121" gradientUnits="userSpaceOnUse">
<stop stop-color="#314DC9" stop-opacity="0"/>
<stop offset="0.276" stop-color="#304BC4" stop-opacity="0.276"/>
<stop offset="0.563" stop-color="#2B45B8" stop-opacity="0.563"/>
<stop offset="0.854" stop-color="#243BA3" stop-opacity="0.854"/>
<stop offset="1" stop-color="#1F3596"/>
</linearGradient>
</defs>
</svg>
