<svg width="16" height="16" viewBox="0 0 16 16" fill="none" xmlns="http://www.w3.org/2000/svg">
<path d="M15.6438 6.45421L14.8439 6.26208C14.6751 5.52088 14.3752 4.81625 13.9627 4.17571L14.3659 3.5169C14.4782 3.33389 14.4502 3.10513 14.3002 2.9587L13.644 2.31816L12.9692 1.65935C12.8192 1.51292 12.5848 1.4855 12.3973 1.59529L11.7224 1.98876C11.0663 1.58614 10.3445 1.29331 9.58514 1.1286L9.38833 0.347739C9.34142 0.146399 9.15399 0 8.93842 0H7.06364C6.84808 0 6.66064 0.146368 6.61374 0.347739L6.41692 1.1286C5.65758 1.29331 4.9358 1.58614 4.27967 1.98876L3.60473 1.59529C3.41727 1.48547 3.18292 1.51289 3.03292 1.65935L1.70177 2.95873C1.55177 3.1051 1.52367 3.33386 1.63614 3.51693L2.0392 4.17574C1.62677 4.81628 1.3268 5.52091 1.15808 6.26211L0.358172 6.45424C0.151922 6.50003 0.00195312 6.68301 0.00195312 6.8935V8.72362C0.00195312 8.93405 0.151891 9.11709 0.358172 9.16282L1.15808 9.35501C1.37364 10.2792 1.79548 11.1577 2.37667 11.9172L3.79211 13.299C4.57017 13.8663 5.46999 14.2781 6.4168 14.4885L6.61361 15.2694C6.66052 15.4707 6.84795 15.6172 7.06352 15.6172H8.9383C9.15386 15.6172 9.3413 15.4707 9.3882 15.2694L9.58502 14.4885C10.3444 14.3238 11.0661 14.031 11.7223 13.6284L12.3971 14.0218C12.5847 14.1317 12.819 14.1042 12.969 13.9578L14.3001 12.6584C14.4501 12.512 14.4781 12.2833 14.3658 12.1002L13.9626 11.4413C14.3751 10.8008 14.675 10.0962 14.8438 9.35501L15.6437 9.16282C15.85 9.11706 15.9999 8.93405 15.9999 8.72362V6.8935C16 6.68298 15.8501 6.5 15.6438 6.45421ZM8.00095 11.9264C6.90427 11.9264 5.9012 11.5237 5.16064 10.8374C5.11377 10.8099 5.0763 10.7734 5.02945 10.7276C4.2608 9.98639 3.7827 8.95236 3.7827 7.80853C3.7827 5.53 5.66683 3.69072 8.00092 3.69072C9.17264 3.69072 10.2319 4.1574 10.9911 4.90773C11.038 4.95352 11.0756 4.99013 11.1037 5.03583C11.8068 5.75876 12.2192 6.73786 12.2192 7.80853C12.2192 10.0871 10.335 11.9264 8.00095 11.9264Z" fill="#B7E0F6"/>
<path d="M15.9997 6.89338V8.72351C15.9997 8.93394 15.8498 9.11698 15.6435 9.16271L14.8436 9.3549C14.6749 10.0961 14.375 10.8007 13.9625 11.4412L14.3656 12.1001C14.478 12.2831 14.4499 12.5119 14.2999 12.6583L12.9689 13.9577C12.8189 14.1041 12.5845 14.1315 12.3969 14.0217L11.7221 13.6283C11.0659 14.0309 10.3441 14.3237 9.58482 14.4884L9.388 15.2693C9.3411 15.4706 9.15366 15.6171 8.9381 15.6171H7.06331C6.84775 15.6171 6.66031 15.4706 6.6134 15.2693L6.41659 14.4884C5.46978 14.278 4.5699 13.8662 3.7919 13.2989L3.08887 12.6126L5.02925 10.7275C5.07612 10.7733 5.11359 10.8099 5.16043 10.8373C5.901 11.5236 6.90406 11.9263 8.00075 11.9263C10.3348 11.9263 12.219 10.087 12.219 7.80848C12.219 6.7378 11.8066 5.75871 11.1035 5.03577C11.0754 4.99001 11.0379 4.95343 10.9909 4.90767L13.6438 2.31807L14.2999 2.9586C14.4499 3.10497 14.4779 3.33374 14.3656 3.51681L13.9625 4.17562C14.375 4.81616 14.6749 5.52079 14.8436 6.262L15.6435 6.45412C15.8498 6.49991 15.9997 6.68289 15.9997 6.89338Z" fill="#A4D9F5"/>
<path d="M11.1753 6.98273C11.1551 6.9042 11.114 6.83231 11.056 6.77439C10.9981 6.71647 10.9254 6.67461 10.8454 6.65308C10.7655 6.63159 10.6812 6.63119 10.6011 6.65192C10.5209 6.67264 10.4479 6.71375 10.3893 6.77104L9.32657 7.8085C9.14991 7.98095 8.91463 8.0757 8.66382 8.0757C8.41301 8.0757 8.17772 7.98098 8.00107 7.8085C7.63582 7.45194 7.63582 6.8711 8.00107 6.51452L9.0711 5.46995C9.18885 5.35501 9.23429 5.18728 9.19026 5.03057C9.14623 4.87386 9.01945 4.75202 8.85807 4.712C8.45623 4.61233 7.93154 4.56612 7.39141 4.65889C6.0691 4.89571 5.01728 5.92248 4.77422 7.21555C4.66941 7.78748 4.71609 8.35715 4.90784 8.8817C4.64112 9.14207 0.521929 13.1632 0.41121 13.2713C-0.13851 13.8079 -0.13851 14.681 0.419898 15.2261C0.973086 15.738 1.82031 15.7595 2.40496 15.2176L6.9016 10.828C7.62169 11.0789 8.42479 11.0738 9.21066 10.8031C10.2721 10.4374 11.0067 9.48109 11.2274 8.40361L11.2279 8.40138C11.3226 7.88394 11.2762 7.37513 11.1753 6.98273Z" fill="#17ACE8"/>
<path d="M2.40502 15.2176L6.90165 10.828C7.62175 11.0789 8.42484 11.0738 9.21075 10.8031C10.2723 10.4374 11.0068 9.48105 11.2275 8.40358L11.2279 8.40135C11.3236 7.87918 11.2754 7.36579 11.1726 6.97195C11.1524 6.89455 11.1115 6.82376 11.0542 6.76678C10.9968 6.7098 10.9251 6.66866 10.8462 6.64755C10.7673 6.62649 10.6841 6.6262 10.6051 6.64671C10.526 6.66721 10.454 6.70778 10.3962 6.7643L9.32663 7.80846C9.14997 7.98091 8.91469 8.07567 8.66387 8.07567C8.41734 8.07567 8.18719 7.98216 8.01153 7.8153L0.419922 15.2261C0.97311 15.738 1.82033 15.7595 2.40502 15.2176Z" fill="#1689FC"/>
</svg>
