<svg width="17" height="19" viewBox="0 0 17 19" fill="none" xmlns="http://www.w3.org/2000/svg">
<path d="M11.9644 2.56033C11.9381 2.50979 11.8986 2.46728 11.8502 2.43727C11.8018 2.40726 11.7461 2.39085 11.6891 2.38977L9.01701 2.44064C8.31939 2.44983 7.65323 2.73241 7.16178 3.22762L0.438054 9.95134C0.157568 10.2319 0 10.6124 0 11.0091C0 11.4058 0.157568 11.7863 0.438054 12.0669C2.40101 13.985 2.31124 14.0388 2.53267 14.0329C2.57409 14.0308 2.61462 14.0202 2.65171 14.0016C2.6888 13.9831 2.72163 13.957 2.74812 13.9251L11.9225 2.89547C11.9625 2.85032 11.9878 2.79418 11.9953 2.73438C12.0028 2.67458 11.992 2.61392 11.9644 2.56033Z" fill="url(#paint0_linear_286_218)"/>
<path d="M11.345 2.55734L8.77162 3.29644C8.10225 3.48966 7.53381 3.93476 7.18569 4.53825L2.43091 12.7701C2.23252 13.1137 2.17875 13.5221 2.28145 13.9054C2.38414 14.2887 2.63488 14.6154 2.97851 14.8138L7.90086 17.6565C8.26293 17.857 8.86139 18.0096 8.93919 17.6147L11.722 2.89547C11.7306 2.84561 11.7263 2.79441 11.7096 2.74664C11.693 2.69887 11.6645 2.6561 11.6269 2.62233C11.5892 2.58856 11.5436 2.56488 11.4943 2.55352C11.445 2.54215 11.3937 2.54347 11.345 2.55734Z" fill="url(#paint1_linear_286_218)"/>
<path d="M15.8874 5.28932L13.3798 2.68302C13.2402 2.53822 13.0729 2.42304 12.8878 2.34437C12.7027 2.2657 12.5037 2.22516 12.3026 2.22516C12.1015 2.22516 11.9024 2.2657 11.7173 2.34437C11.5322 2.42304 11.3649 2.53822 11.2253 2.68302L8.71778 5.28932C8.23515 5.79005 7.96493 6.45808 7.96371 7.15353V16.6601C7.96371 17.0569 8.12134 17.4375 8.40193 17.718C8.68251 17.9986 9.06307 18.1563 9.45987 18.1563H15.1453C15.5421 18.1563 15.9226 17.9986 16.2032 17.718C16.4838 17.4375 16.6414 17.0569 16.6414 16.6601V7.15353C16.6402 6.45808 16.37 5.79005 15.8874 5.28932Z" fill="url(#paint2_linear_286_218)"/>
<path d="M14.2476 0.764954C14.2476 0.782907 14.0172 2.46459 12.6886 3.23959C12.5888 3.15428 12.4637 3.10415 12.3326 3.09693C12.2015 3.0897 12.0717 3.12579 11.9631 3.19963C11.8546 3.27347 11.7733 3.38096 11.7319 3.50554C11.6904 3.63012 11.6911 3.76487 11.7338 3.88903C11.7764 4.01319 11.8588 4.11987 11.968 4.19263C12.0773 4.2654 12.2075 4.3002 12.3385 4.29168C12.4696 4.28317 12.5941 4.2318 12.6931 4.1455C12.792 4.0592 12.8598 3.94276 12.8861 3.81412C14.5468 2.92839 14.8461 0.932523 14.8461 0.836769L14.2476 0.764954Z" fill="url(#paint3_linear_286_218)"/>
<path d="M12.8382 11.5732H12.7514V10.3763H12.8382C12.9969 10.3763 13.1492 10.4393 13.2614 10.5515C13.3736 10.6638 13.4367 10.816 13.4367 10.9747H14.0351C14.0351 10.6573 13.909 10.3528 13.6846 10.1284C13.4601 9.9039 13.1557 9.77779 12.8382 9.77779H12.7514V9.05066H12.153V9.77779H12.0662C11.7488 9.77779 11.4443 9.9039 11.2198 10.1284C10.9954 10.3528 10.8693 10.6573 10.8693 10.9747C10.8693 11.2922 10.9954 11.5966 11.2198 11.8211C11.4443 12.0455 11.7488 12.1716 12.0662 12.1716H12.153V13.3686H12.0662C11.9075 13.3686 11.7553 13.3055 11.643 13.1933C11.5308 13.081 11.4677 12.9288 11.4677 12.7701H10.8693C10.8693 13.0875 10.9954 13.392 11.2198 13.6165C11.4443 13.8409 11.7488 13.967 12.0662 13.967H12.153V14.6942H12.7514V13.967H12.8382C13.1557 13.967 13.4601 13.8409 13.6846 13.6165C13.909 13.392 14.0351 13.0875 14.0351 12.7701C14.0351 12.4527 13.909 12.1482 13.6846 11.9237C13.4601 11.6993 13.1557 11.5732 12.8382 11.5732ZM12.0662 11.5732C11.9075 11.5732 11.7553 11.5101 11.643 11.3979C11.5308 11.2857 11.4677 11.1334 11.4677 10.9747C11.4677 10.816 11.5308 10.6638 11.643 10.5515C11.7553 10.4393 11.9075 10.3763 12.0662 10.3763H12.153V11.5732H12.0662ZM12.8382 13.3686H12.7514V12.1716H12.8382C12.9969 12.1716 13.1492 12.2347 13.2614 12.3469C13.3736 12.4592 13.4367 12.6114 13.4367 12.7701C13.4367 12.9288 13.3736 13.081 13.2614 13.1933C13.1492 13.3055 12.9969 13.3686 12.8382 13.3686Z" fill="url(#paint4_linear_286_218)"/>
<defs>
<linearGradient id="paint0_linear_286_218" x1="9.89974" y1="1.74642" x2="0.794137" y2="13.1591" gradientUnits="userSpaceOnUse">
<stop stop-color="#FFC033"/>
<stop offset="1" stop-color="#EF8E2E"/>
</linearGradient>
<linearGradient id="paint1_linear_286_218" x1="13.1254" y1="2.52742" x2="4.78885" y2="16.6332" gradientUnits="userSpaceOnUse">
<stop stop-color="#CE7F20"/>
<stop offset="1" stop-color="#B2500D"/>
</linearGradient>
<linearGradient id="paint2_linear_286_218" x1="12.3026" y1="2.2252" x2="12.3026" y2="18.1563" gradientUnits="userSpaceOnUse">
<stop stop-color="#FFC033"/>
<stop offset="1" stop-color="#EF8E2E"/>
</linearGradient>
<linearGradient id="paint3_linear_286_218" x1="11.7041" y1="2.52742" x2="14.8431" y2="2.52742" gradientUnits="userSpaceOnUse">
<stop stop-color="#002237"/>
<stop offset="1" stop-color="#003352"/>
</linearGradient>
<linearGradient id="paint4_linear_286_218" x1="10.8693" y1="11.8724" x2="14.0351" y2="11.8724" gradientUnits="userSpaceOnUse">
<stop stop-color="#002237"/>
<stop offset="1" stop-color="#003352"/>
</linearGradient>
</defs>
</svg>
