<svg width="26" height="26" viewBox="0 0 26 26" fill="none" xmlns="http://www.w3.org/2000/svg">
<rect x="0.15" y="0.15" width="25.7" height="25.7" rx="5.85" stroke="white" stroke-width="0.3"/>
<path d="M19.1979 10.018H6.56823C6.28055 10.018 6.04199 9.77943 6.04199 9.49175C6.04199 9.20408 6.28055 8.96552 6.56823 8.96552H19.1979C19.4856 8.96552 19.7242 9.20408 19.7242 9.49175C19.7242 9.77943 19.4856 10.018 19.1979 10.018Z" fill="white"/>
<path d="M19.1979 13.5262H6.56823C6.28055 13.5262 6.04199 13.2877 6.04199 13C6.04199 12.7123 6.28055 12.4738 6.56823 12.4738H19.1979C19.4856 12.4738 19.7242 12.7123 19.7242 13C19.7242 13.2877 19.4856 13.5262 19.1979 13.5262Z" fill="white"/>
<path d="M19.1979 17.0345H6.56823C6.28055 17.0345 6.04199 16.7959 6.04199 16.5083C6.04199 16.2206 6.28055 15.982 6.56823 15.982H19.1979C19.4856 15.982 19.7242 16.2206 19.7242 16.5083C19.7242 16.7959 19.4856 17.0345 19.1979 17.0345Z" fill="white"/>
</svg>
