<svg width="20" height="20" viewBox="0 0 20 20" fill="none" xmlns="http://www.w3.org/2000/svg">
<g clip-path="url(#clip0_194_851)">
<path d="M19.5548 8.26576L18.555 8.01974C18.344 7.07064 17.9691 6.16838 17.4535 5.34819L17.9574 4.50459C18.0978 4.27026 18.0628 3.97733 17.8753 3.78983L17.0551 2.96964L16.2115 2.12604C16.024 1.93854 15.7311 1.90343 15.4966 2.04401L14.6531 2.54784C13.8329 2.03229 12.9306 1.65733 11.9815 1.44643L11.7355 0.446554C11.6768 0.188742 11.4426 0.00128174 11.1731 0.00128174H8.82963C8.56017 0.00128174 8.32588 0.188703 8.26724 0.446554L8.02123 1.44643C7.07205 1.65733 6.16983 2.03229 5.34967 2.54784L4.506 2.04401C4.27167 1.90339 3.97874 1.9385 3.79124 2.12604L2.12729 3.78987C1.93979 3.97729 1.90468 4.27022 2.04526 4.50463L2.54909 5.34822C2.03354 6.16842 1.65858 7.07068 1.44769 8.01978L0.447806 8.2658C0.189994 8.32443 0.00253296 8.55873 0.00253296 8.82826V11.1717C0.00253296 11.4411 0.189954 11.6755 0.447806 11.7341L1.44769 11.9802C1.71714 13.1636 2.24444 14.2884 2.97093 15.261L4.74022 17.0303C5.7128 17.7568 6.83756 18.2841 8.02107 18.5535L8.26709 19.5534C8.32572 19.8112 8.56002 19.9987 8.82947 19.9987H11.1729C11.4424 19.9987 11.6767 19.8112 11.7353 19.5534L11.9813 18.5535C12.9305 18.3427 13.8327 17.9677 14.6529 17.4521L15.4965 17.9559C15.7309 18.0966 16.0238 18.0614 16.2114 17.8739L17.8752 16.2101C18.0627 16.0227 18.0977 15.7297 17.9573 15.4953L17.4534 14.6516C17.969 13.8315 18.3439 12.9293 18.5548 11.9802L19.5546 11.7341C19.8125 11.6755 19.9999 11.4411 19.9999 11.1717V8.82826C20 8.55869 19.8127 8.32439 19.5548 8.26576ZM10.0013 15.2727C8.63041 15.2727 7.37658 14.7572 6.45088 13.8784C6.39229 13.8432 6.34545 13.7963 6.2869 13.7377C5.32608 12.7886 4.72846 11.4646 4.72846 9.99993C4.72846 7.08232 7.08361 4.72717 10.0012 4.72717C11.4659 4.72717 12.7899 5.32475 13.739 6.28553C13.7976 6.34416 13.8445 6.39103 13.8797 6.44955C14.7585 7.37525 15.274 8.62896 15.274 9.99993C15.274 12.9175 12.9189 15.2727 10.0013 15.2727Z" fill="#B7E0F6"/>
<path d="M20 8.82823V11.1717C20 11.4411 19.8127 11.6755 19.5548 11.734L18.5549 11.9801C18.344 12.9292 17.9691 13.8314 17.4535 14.6516L17.9574 15.4953C18.0978 15.7296 18.0628 16.0226 17.8753 16.2101L16.2115 17.8739C16.024 18.0614 15.731 18.0965 15.4966 17.9559L14.653 17.4521C13.8328 17.9676 12.9306 18.3426 11.9814 18.5535L11.7354 19.5534C11.6768 19.8112 11.4425 19.9987 11.173 19.9987H8.82956C8.5601 19.9987 8.32581 19.8112 8.26718 19.5534L8.02116 18.5535C6.83764 18.2841 5.7128 17.7568 4.7403 17.0303L3.86151 16.1515L6.28698 13.7378C6.34557 13.7964 6.39241 13.8432 6.45096 13.8784C7.37667 14.7572 8.6305 15.2728 10.0014 15.2728C12.919 15.2728 15.2741 12.9176 15.2741 9.99999C15.2741 8.62901 14.7587 7.3753 13.8798 6.4496C13.8446 6.391 13.7977 6.34417 13.739 6.28557L17.0551 2.96964L17.8753 3.78983C18.0628 3.97725 18.0978 4.27018 17.9574 4.5046L17.4535 5.34819C17.9691 6.16839 18.344 7.07065 18.5549 8.01975L19.5548 8.26577C19.8127 8.3244 20 8.5587 20 8.82823Z" fill="#A4D9F5"/>
<path d="M13.9691 8.94264C13.9439 8.84209 13.8924 8.75003 13.82 8.67587C13.7475 8.60171 13.6567 8.54811 13.5568 8.52053C13.4569 8.49302 13.3515 8.49251 13.2513 8.51905C13.1511 8.54559 13.0598 8.59822 12.9866 8.67159L11.6582 10C11.4374 10.2208 11.1433 10.3422 10.8298 10.3422C10.5162 10.3422 10.2221 10.2209 10.0013 10C9.54475 9.54346 9.54475 8.79971 10.0013 8.34311L11.3389 7.00557C11.486 6.85838 11.5428 6.64362 11.4878 6.44295C11.4328 6.24229 11.2743 6.08627 11.0726 6.03502C10.5703 5.90741 9.9144 5.84823 9.23925 5.96702C7.58636 6.27026 6.27159 7.58502 5.96776 9.24077C5.83675 9.97311 5.89511 10.7026 6.13479 11.3742C5.80139 11.7076 0.65241 16.8565 0.514012 16.995C-0.173137 17.6822 -0.173137 18.8001 0.524871 19.4981C1.21636 20.1536 2.27538 20.1812 3.0062 19.4872L8.62698 13.8665C9.5271 14.1877 10.531 14.1812 11.5133 13.8346C12.8401 13.3663 13.7583 12.1417 14.0342 10.7621L14.0348 10.7592C14.1533 10.0966 14.0952 9.4451 13.9691 8.94264Z" fill="#17ACE8"/>
<path d="M3.00627 19.4872L8.62705 13.8664C9.52717 14.1877 10.531 14.1811 11.5134 13.8345C12.8403 13.3663 13.7584 12.1417 14.0343 10.762L14.0349 10.7592C14.1544 10.0905 14.0942 9.43314 13.9657 8.92884C13.9404 8.82974 13.8894 8.73909 13.8177 8.66613C13.746 8.59316 13.6563 8.54049 13.5577 8.51345C13.4591 8.48649 13.3551 8.48612 13.2563 8.51237C13.1575 8.53863 13.0674 8.59058 12.9952 8.66294L11.6583 9.99998C11.4374 10.2208 11.1433 10.3421 10.8298 10.3421C10.5217 10.3421 10.234 10.2224 10.0144 10.0087L0.524902 19.4981C1.21639 20.1535 2.27541 20.1811 3.00627 19.4872Z" fill="#1689FC"/>
</g>
<defs>
<clipPath id="clip0_194_851">
<rect width="20" height="20" fill="white"/>
</clipPath>
</defs>
</svg>
