<svg width="1356" height="774" viewBox="0 0 1356 774" fill="none" xmlns="http://www.w3.org/2000/svg">
<g id="curve-balls-1">
<g id="Group 238335" clip-path="url(#clip0_19_62)">
<g id="Group 238381">
<path id="Vector" d="M594.637 -826.873C625.336 -844.375 662.994 -844.375 693.693 -826.873L1180.86 -549.135C1212.07 -531.344 1231.34 -498.183 1231.34 -462.261V91.0415C1231.34 126.964 1212.07 160.124 1180.86 177.915L693.693 455.654C662.994 473.156 625.336 473.156 594.637 455.654L107.472 177.915C76.2662 160.124 57 126.964 57 91.0415V-462.261C57 -498.183 76.2662 -531.344 107.472 -549.135L594.637 -826.873Z" stroke="white" stroke-opacity="0.15" stroke-width="25"/>
<path id="Vector_2" d="M594.637 -826.873C625.336 -844.375 662.994 -844.375 693.693 -826.873L1180.86 -549.135C1212.07 -531.344 1231.34 -498.183 1231.34 -462.261V91.0415C1231.34 126.964 1212.07 160.124 1180.86 177.915L693.693 455.654C662.994 473.156 625.336 473.156 594.637 455.654L107.472 177.915C76.2662 160.124 57 126.964 57 91.0415V-462.261C57 -498.183 76.2662 -531.344 107.472 -549.135L594.637 -826.873Z" stroke="white" stroke-opacity="0.7" stroke-width="3"/>
</g>
</g>
<g id="ball2">
<path id="Vector_3" d="M224 263C234.493 263 243 254.493 243 244C243 233.507 234.493 225 224 225C213.507 225 205 233.507 205 244C205 254.493 213.507 263 224 263Z" fill="#B2A0DB" fill-opacity="0.2"/>
<path id="Ellipse 1" d="M237 244.5C237 251.404 231.404 257 224.5 257C217.596 257 212 251.404 212 244.5C212 237.596 217.596 232 224.5 232C231.404 232 237 237.596 237 244.5Z" fill="url(#paint0_linear_19_62)"/>
<g id="rotate">
<g id="Group 238382">
<path id="Ellipse 3" d="M225.5 276.5C242.076 276.5 255.5 262.837 255.5 246C255.5 229.163 242.076 215.5 225.5 215.5C208.924 215.5 195.5 229.163 195.5 246C195.5 262.837 208.924 276.5 225.5 276.5Z" stroke="#C8C4E3"/>
<path id="Ellipse 4" d="M226.561 272.112C240.909 271.526 252.063 259.392 251.477 245.012C250.89 230.632 238.785 219.446 224.437 220.031C210.089 220.616 198.935 232.75 199.521 247.131C200.108 261.511 212.213 272.697 226.561 272.112Z" stroke="#B8B5CF" stroke-opacity="0.41"/>
</g>
<g id="Ellipse 5">
<path d="M237 273C237 275.209 235.209 277 233 277C230.791 277 229 275.209 229 273C229 270.791 230.791 269 233 269C235.209 269 237 270.791 237 273Z" fill="url(#paint1_linear_19_62)"/>
<path d="M237 273C237 275.209 235.209 277 233 277C230.791 277 229 275.209 229 273C229 270.791 230.791 269 233 269C235.209 269 237 270.791 237 273Z" fill="url(#paint2_linear_19_62)"/>
</g>
<g id="Ellipse 6">
<path d="M210 262.5C210 266.09 207.09 269 203.5 269C199.91 269 197 266.09 197 262.5C197 258.91 199.91 256 203.5 256C207.09 256 210 258.91 210 262.5Z" fill="url(#paint3_linear_19_62)"/>
<path d="M210 262.5C210 266.09 207.09 269 203.5 269C199.91 269 197 266.09 197 262.5C197 258.91 199.91 256 203.5 256C207.09 256 210 258.91 210 262.5Z" fill="url(#paint4_linear_19_62)"/>
</g>
<g id="Ellipse 7">
<path d="M208 228C208 230.209 206.209 232 204 232C201.791 232 200 230.209 200 228C200 225.791 201.791 224 204 224C206.209 224 208 225.791 208 228Z" fill="url(#paint5_linear_19_62)"/>
<path d="M208 228C208 230.209 206.209 232 204 232C201.791 232 200 230.209 200 228C200 225.791 201.791 224 204 224C206.209 224 208 225.791 208 228Z" fill="url(#paint6_linear_19_62)"/>
</g>
<g id="Ellipse 8">
<path d="M245 220.5C245 224.09 242.09 227 238.5 227C234.91 227 232 224.09 232 220.5C232 216.91 234.91 214 238.5 214C242.09 214 245 216.91 245 220.5Z" fill="url(#paint7_linear_19_62)"/>
<path d="M245 220.5C245 224.09 242.09 227 238.5 227C234.91 227 232 224.09 232 220.5C232 216.91 234.91 214 238.5 214C242.09 214 245 216.91 245 220.5Z" fill="url(#paint8_linear_19_62)"/>
</g>
<g id="Ellipse 9">
<path d="M258 245C258 247.209 256.209 249 254 249C251.791 249 250 247.209 250 245C250 242.791 251.791 241 254 241C256.209 241 258 242.791 258 245Z" fill="url(#paint9_linear_19_62)"/>
<path d="M258 245C258 247.209 256.209 249 254 249C251.791 249 250 247.209 250 245C250 242.791 251.791 241 254 241C256.209 241 258 242.791 258 245Z" fill="url(#paint10_linear_19_62)"/>
</g>
</g>
</g>
<g id="ball1">
<path id="Vector_4" d="M57 50C67.4934 50 76 41.4934 76 31C76 20.5066 67.4934 12 57 12C46.5066 12 38 20.5066 38 31C38 41.4934 46.5066 50 57 50Z" fill="#B2A0DB" fill-opacity="0.2"/>
<path id="Ellipse 1_2" d="M70 31.5C70 38.4036 64.4036 44 57.5 44C50.5964 44 45 38.4036 45 31.5C45 24.5964 50.5964 19 57.5 19C64.4036 19 70 24.5964 70 31.5Z" fill="url(#paint11_linear_19_62)"/>
<g id="rotate_2">
<g id="Group 238382_2">
<path id="Ellipse 3_2" d="M58.5 63.5C75.0764 63.5 88.5 49.8367 88.5 33C88.5 16.1633 75.0764 2.5 58.5 2.5C41.9236 2.5 28.5 16.1633 28.5 33C28.5 49.8367 41.9236 63.5 58.5 63.5Z" stroke="#C8C4E3"/>
<path id="Ellipse 4_2" d="M59.561 59.1116C73.9092 58.5264 85.0632 46.3925 84.4768 32.012C83.8903 17.6316 71.7854 6.44614 57.4372 7.03125C43.089 7.61637 31.935 19.7503 32.5214 34.1308C33.1079 48.5112 45.2128 59.6967 59.561 59.1116Z" stroke="#B8B5CF" stroke-opacity="0.41"/>
</g>
<g id="Ellipse 5_2">
<path d="M70 60C70 62.2091 68.2091 64 66 64C63.7909 64 62 62.2091 62 60C62 57.7909 63.7909 56 66 56C68.2091 56 70 57.7909 70 60Z" fill="url(#paint12_linear_19_62)"/>
<path d="M70 60C70 62.2091 68.2091 64 66 64C63.7909 64 62 62.2091 62 60C62 57.7909 63.7909 56 66 56C68.2091 56 70 57.7909 70 60Z" fill="url(#paint13_linear_19_62)"/>
</g>
<g id="Ellipse 6_2">
<path d="M43 49.5C43 53.0899 40.0899 56 36.5 56C32.9101 56 30 53.0899 30 49.5C30 45.9101 32.9101 43 36.5 43C40.0899 43 43 45.9101 43 49.5Z" fill="url(#paint14_linear_19_62)"/>
<path d="M43 49.5C43 53.0899 40.0899 56 36.5 56C32.9101 56 30 53.0899 30 49.5C30 45.9101 32.9101 43 36.5 43C40.0899 43 43 45.9101 43 49.5Z" fill="url(#paint15_linear_19_62)"/>
</g>
<g id="Ellipse 7_2">
<path d="M41 15C41 17.2091 39.2091 19 37 19C34.7909 19 33 17.2091 33 15C33 12.7909 34.7909 11 37 11C39.2091 11 41 12.7909 41 15Z" fill="url(#paint16_linear_19_62)"/>
<path d="M41 15C41 17.2091 39.2091 19 37 19C34.7909 19 33 17.2091 33 15C33 12.7909 34.7909 11 37 11C39.2091 11 41 12.7909 41 15Z" fill="url(#paint17_linear_19_62)"/>
</g>
<g id="Ellipse 8_2">
<path d="M78 7.5C78 11.0899 75.0899 14 71.5 14C67.9101 14 65 11.0899 65 7.5C65 3.91015 67.9101 1 71.5 1C75.0899 1 78 3.91015 78 7.5Z" fill="url(#paint18_linear_19_62)"/>
<path d="M78 7.5C78 11.0899 75.0899 14 71.5 14C67.9101 14 65 11.0899 65 7.5C65 3.91015 67.9101 1 71.5 1C75.0899 1 78 3.91015 78 7.5Z" fill="url(#paint19_linear_19_62)"/>
</g>
<g id="Ellipse 9_2">
<path d="M91 32C91 34.2091 89.2091 36 87 36C84.7909 36 83 34.2091 83 32C83 29.7909 84.7909 28 87 28C89.2091 28 91 29.7909 91 32Z" fill="url(#paint20_linear_19_62)"/>
<path d="M91 32C91 34.2091 89.2091 36 87 36C84.7909 36 83 34.2091 83 32C83 29.7909 84.7909 28 87 28C89.2091 28 91 29.7909 91 32Z" fill="url(#paint21_linear_19_62)"/>
</g>
</g>
</g>
<g id="ball3">
<path id="Vector_5" d="M1063 263C1073.49 263 1082 254.493 1082 244C1082 233.507 1073.49 225 1063 225C1052.51 225 1044 233.507 1044 244C1044 254.493 1052.51 263 1063 263Z" fill="#B2A0DB" fill-opacity="0.2"/>
<path id="Ellipse 1_3" d="M1076 244.5C1076 251.404 1070.4 257 1063.5 257C1056.6 257 1051 251.404 1051 244.5C1051 237.596 1056.6 232 1063.5 232C1070.4 232 1076 237.596 1076 244.5Z" fill="url(#paint22_linear_19_62)"/>
<g id="rotate_3">
<g id="Group 238382_3">
<path id="Ellipse 3_3" d="M1064.5 276.5C1081.08 276.5 1094.5 262.837 1094.5 246C1094.5 229.163 1081.08 215.5 1064.5 215.5C1047.92 215.5 1034.5 229.163 1034.5 246C1034.5 262.837 1047.92 276.5 1064.5 276.5Z" stroke="#C8C4E3"/>
<path id="Ellipse 4_3" d="M1065.56 272.112C1079.91 271.526 1091.06 259.392 1090.48 245.012C1089.89 230.632 1077.79 219.446 1063.44 220.031C1049.09 220.616 1037.94 232.75 1038.52 247.131C1039.11 261.511 1051.21 272.697 1065.56 272.112Z" stroke="#B8B5CF" stroke-opacity="0.41"/>
</g>
<g id="Ellipse 5_3">
<path d="M1076 273C1076 275.209 1074.21 277 1072 277C1069.79 277 1068 275.209 1068 273C1068 270.791 1069.79 269 1072 269C1074.21 269 1076 270.791 1076 273Z" fill="url(#paint23_linear_19_62)"/>
<path d="M1076 273C1076 275.209 1074.21 277 1072 277C1069.79 277 1068 275.209 1068 273C1068 270.791 1069.79 269 1072 269C1074.21 269 1076 270.791 1076 273Z" fill="url(#paint24_linear_19_62)"/>
</g>
<g id="Ellipse 6_3">
<path d="M1049 262.5C1049 266.09 1046.09 269 1042.5 269C1038.91 269 1036 266.09 1036 262.5C1036 258.91 1038.91 256 1042.5 256C1046.09 256 1049 258.91 1049 262.5Z" fill="url(#paint25_linear_19_62)"/>
<path d="M1049 262.5C1049 266.09 1046.09 269 1042.5 269C1038.91 269 1036 266.09 1036 262.5C1036 258.91 1038.91 256 1042.5 256C1046.09 256 1049 258.91 1049 262.5Z" fill="url(#paint26_linear_19_62)"/>
</g>
<g id="Ellipse 7_3">
<path d="M1047 228C1047 230.209 1045.21 232 1043 232C1040.79 232 1039 230.209 1039 228C1039 225.791 1040.79 224 1043 224C1045.21 224 1047 225.791 1047 228Z" fill="url(#paint27_linear_19_62)"/>
<path d="M1047 228C1047 230.209 1045.21 232 1043 232C1040.79 232 1039 230.209 1039 228C1039 225.791 1040.79 224 1043 224C1045.21 224 1047 225.791 1047 228Z" fill="url(#paint28_linear_19_62)"/>
</g>
<g id="Ellipse 8_3">
<path d="M1084 220.5C1084 224.09 1081.09 227 1077.5 227C1073.91 227 1071 224.09 1071 220.5C1071 216.91 1073.91 214 1077.5 214C1081.09 214 1084 216.91 1084 220.5Z" fill="url(#paint29_linear_19_62)"/>
<path d="M1084 220.5C1084 224.09 1081.09 227 1077.5 227C1073.91 227 1071 224.09 1071 220.5C1071 216.91 1073.91 214 1077.5 214C1081.09 214 1084 216.91 1084 220.5Z" fill="url(#paint30_linear_19_62)"/>
</g>
<g id="Ellipse 9_3">
<path d="M1097 245C1097 247.209 1095.21 249 1093 249C1090.79 249 1089 247.209 1089 245C1089 242.791 1090.79 241 1093 241C1095.21 241 1097 242.791 1097 245Z" fill="url(#paint31_linear_19_62)"/>
<path d="M1097 245C1097 247.209 1095.21 249 1093 249C1090.79 249 1089 247.209 1089 245C1089 242.791 1090.79 241 1093 241C1095.21 241 1097 242.791 1097 245Z" fill="url(#paint32_linear_19_62)"/>
</g>
</g>
</g>
<g id="ball4">
<path id="Vector_6" d="M1230 52C1240.49 52 1249 43.4934 1249 33C1249 22.5066 1240.49 14 1230 14C1219.51 14 1211 22.5066 1211 33C1211 43.4934 1219.51 52 1230 52Z" fill="#B2A0DB" fill-opacity="0.2"/>
<path id="Ellipse 1_4" d="M1243 33.5C1243 40.4036 1237.4 46 1230.5 46C1223.6 46 1218 40.4036 1218 33.5C1218 26.5964 1223.6 21 1230.5 21C1237.4 21 1243 26.5964 1243 33.5Z" fill="url(#paint33_linear_19_62)"/>
<g id="rotate_4">
<g id="Group 238382_4">
<path id="Ellipse 3_4" d="M1231.5 65.5C1248.08 65.5 1261.5 51.8367 1261.5 35C1261.5 18.1633 1248.08 4.5 1231.5 4.5C1214.92 4.5 1201.5 18.1633 1201.5 35C1201.5 51.8367 1214.92 65.5 1231.5 65.5Z" stroke="#C8C4E3"/>
<path id="Ellipse 4_4" d="M1232.56 61.1116C1246.91 60.5264 1258.06 48.3925 1257.48 34.012C1256.89 19.6316 1244.79 8.44614 1230.44 9.03125C1216.09 9.61637 1204.94 21.7503 1205.52 36.1308C1206.11 50.5112 1218.21 61.6967 1232.56 61.1116Z" stroke="#B8B5CF" stroke-opacity="0.41"/>
</g>
<g id="Ellipse 5_4">
<path d="M1243 62C1243 64.2091 1241.21 66 1239 66C1236.79 66 1235 64.2091 1235 62C1235 59.7909 1236.79 58 1239 58C1241.21 58 1243 59.7909 1243 62Z" fill="url(#paint34_linear_19_62)"/>
<path d="M1243 62C1243 64.2091 1241.21 66 1239 66C1236.79 66 1235 64.2091 1235 62C1235 59.7909 1236.79 58 1239 58C1241.21 58 1243 59.7909 1243 62Z" fill="url(#paint35_linear_19_62)"/>
</g>
<g id="Ellipse 6_4">
<path d="M1216 51.5C1216 55.0899 1213.09 58 1209.5 58C1205.91 58 1203 55.0899 1203 51.5C1203 47.9101 1205.91 45 1209.5 45C1213.09 45 1216 47.9101 1216 51.5Z" fill="url(#paint36_linear_19_62)"/>
<path d="M1216 51.5C1216 55.0899 1213.09 58 1209.5 58C1205.91 58 1203 55.0899 1203 51.5C1203 47.9101 1205.91 45 1209.5 45C1213.09 45 1216 47.9101 1216 51.5Z" fill="url(#paint37_linear_19_62)"/>
</g>
<g id="Ellipse 7_4">
<path d="M1214 17C1214 19.2091 1212.21 21 1210 21C1207.79 21 1206 19.2091 1206 17C1206 14.7909 1207.79 13 1210 13C1212.21 13 1214 14.7909 1214 17Z" fill="url(#paint38_linear_19_62)"/>
<path d="M1214 17C1214 19.2091 1212.21 21 1210 21C1207.79 21 1206 19.2091 1206 17C1206 14.7909 1207.79 13 1210 13C1212.21 13 1214 14.7909 1214 17Z" fill="url(#paint39_linear_19_62)"/>
</g>
<g id="Ellipse 8_4">
<path d="M1251 9.5C1251 13.0899 1248.09 16 1244.5 16C1240.91 16 1238 13.0899 1238 9.5C1238 5.91015 1240.91 3 1244.5 3C1248.09 3 1251 5.91015 1251 9.5Z" fill="url(#paint40_linear_19_62)"/>
<path d="M1251 9.5C1251 13.0899 1248.09 16 1244.5 16C1240.91 16 1238 13.0899 1238 9.5C1238 5.91015 1240.91 3 1244.5 3C1248.09 3 1251 5.91015 1251 9.5Z" fill="url(#paint41_linear_19_62)"/>
</g>
<g id="Ellipse 9_4">
<path d="M1264 34C1264 36.2091 1262.21 38 1260 38C1257.79 38 1256 36.2091 1256 34C1256 31.7909 1257.79 30 1260 30C1262.21 30 1264 31.7909 1264 34Z" fill="url(#paint42_linear_19_62)"/>
<path d="M1264 34C1264 36.2091 1262.21 38 1260 38C1257.79 38 1256 36.2091 1256 34C1256 31.7909 1257.79 30 1260 30C1262.21 30 1264 31.7909 1264 34Z" fill="url(#paint43_linear_19_62)"/>
</g>
</g>
</g>
</g>
<defs>
<linearGradient id="paint0_linear_19_62" x1="273.744" y1="247.484" x2="260.862" y2="216.137" gradientUnits="userSpaceOnUse">
<stop offset="0.0115281" stop-color="#301F5E"/>
<stop offset="1" stop-color="#FAF8FE"/>
</linearGradient>
<linearGradient id="paint1_linear_19_62" x1="248.151" y1="274.163" x2="245.243" y2="263.715" gradientUnits="userSpaceOnUse">
<stop offset="0.0115281" stop-color="#301F5E"/>
<stop offset="1" stop-color="#FAF8FE"/>
</linearGradient>
<linearGradient id="paint2_linear_19_62" x1="248.151" y1="274.163" x2="245.243" y2="263.715" gradientUnits="userSpaceOnUse">
<stop offset="0.0115281" stop-color="#301F5E"/>
<stop offset="1" stop-color="#FAF8FE"/>
</linearGradient>
<linearGradient id="paint3_linear_19_62" x1="228.12" y1="264.391" x2="223.396" y2="247.413" gradientUnits="userSpaceOnUse">
<stop offset="0.0115281" stop-color="#301F5E"/>
<stop offset="1" stop-color="#FAF8FE"/>
</linearGradient>
<linearGradient id="paint4_linear_19_62" x1="228.12" y1="264.391" x2="223.396" y2="247.413" gradientUnits="userSpaceOnUse">
<stop offset="0.0115281" stop-color="#301F5E"/>
<stop offset="1" stop-color="#FAF8FE"/>
</linearGradient>
<linearGradient id="paint5_linear_19_62" x1="219.151" y1="229.163" x2="216.243" y2="218.715" gradientUnits="userSpaceOnUse">
<stop offset="0.0115281" stop-color="#301F5E"/>
<stop offset="1" stop-color="#FAF8FE"/>
</linearGradient>
<linearGradient id="paint6_linear_19_62" x1="219.151" y1="229.163" x2="216.243" y2="218.715" gradientUnits="userSpaceOnUse">
<stop offset="0.0115281" stop-color="#301F5E"/>
<stop offset="1" stop-color="#FAF8FE"/>
</linearGradient>
<linearGradient id="paint7_linear_19_62" x1="263.12" y1="222.391" x2="258.396" y2="205.413" gradientUnits="userSpaceOnUse">
<stop offset="0.0115281" stop-color="#301F5E"/>
<stop offset="1" stop-color="#FAF8FE"/>
</linearGradient>
<linearGradient id="paint8_linear_19_62" x1="263.12" y1="222.391" x2="258.396" y2="205.413" gradientUnits="userSpaceOnUse">
<stop offset="0.0115281" stop-color="#301F5E"/>
<stop offset="1" stop-color="#FAF8FE"/>
</linearGradient>
<linearGradient id="paint9_linear_19_62" x1="269.151" y1="246.163" x2="266.243" y2="235.715" gradientUnits="userSpaceOnUse">
<stop offset="0.0115281" stop-color="#301F5E"/>
<stop offset="1" stop-color="#FAF8FE"/>
</linearGradient>
<linearGradient id="paint10_linear_19_62" x1="269.151" y1="246.163" x2="266.243" y2="235.715" gradientUnits="userSpaceOnUse">
<stop offset="0.0115281" stop-color="#301F5E"/>
<stop offset="1" stop-color="#FAF8FE"/>
</linearGradient>
<linearGradient id="paint11_linear_19_62" x1="106.744" y1="34.4838" x2="93.8618" y2="3.13738" gradientUnits="userSpaceOnUse">
<stop offset="0.0115281" stop-color="#301F5E"/>
<stop offset="1" stop-color="#FAF8FE"/>
</linearGradient>
<linearGradient id="paint12_linear_19_62" x1="81.1505" y1="61.1634" x2="78.2434" y2="50.7154" gradientUnits="userSpaceOnUse">
<stop offset="0.0115281" stop-color="#301F5E"/>
<stop offset="1" stop-color="#FAF8FE"/>
</linearGradient>
<linearGradient id="paint13_linear_19_62" x1="81.1505" y1="61.1634" x2="78.2434" y2="50.7154" gradientUnits="userSpaceOnUse">
<stop offset="0.0115281" stop-color="#301F5E"/>
<stop offset="1" stop-color="#FAF8FE"/>
</linearGradient>
<linearGradient id="paint14_linear_19_62" x1="61.1196" y1="51.3905" x2="56.3955" y2="34.4125" gradientUnits="userSpaceOnUse">
<stop offset="0.0115281" stop-color="#301F5E"/>
<stop offset="1" stop-color="#FAF8FE"/>
</linearGradient>
<linearGradient id="paint15_linear_19_62" x1="61.1196" y1="51.3905" x2="56.3955" y2="34.4125" gradientUnits="userSpaceOnUse">
<stop offset="0.0115281" stop-color="#301F5E"/>
<stop offset="1" stop-color="#FAF8FE"/>
</linearGradient>
<linearGradient id="paint16_linear_19_62" x1="52.1505" y1="16.1634" x2="49.2434" y2="5.71539" gradientUnits="userSpaceOnUse">
<stop offset="0.0115281" stop-color="#301F5E"/>
<stop offset="1" stop-color="#FAF8FE"/>
</linearGradient>
<linearGradient id="paint17_linear_19_62" x1="52.1505" y1="16.1634" x2="49.2434" y2="5.71539" gradientUnits="userSpaceOnUse">
<stop offset="0.0115281" stop-color="#301F5E"/>
<stop offset="1" stop-color="#FAF8FE"/>
</linearGradient>
<linearGradient id="paint18_linear_19_62" x1="96.1196" y1="9.39052" x2="91.3955" y2="-7.5875" gradientUnits="userSpaceOnUse">
<stop offset="0.0115281" stop-color="#301F5E"/>
<stop offset="1" stop-color="#FAF8FE"/>
</linearGradient>
<linearGradient id="paint19_linear_19_62" x1="96.1196" y1="9.39052" x2="91.3955" y2="-7.5875" gradientUnits="userSpaceOnUse">
<stop offset="0.0115281" stop-color="#301F5E"/>
<stop offset="1" stop-color="#FAF8FE"/>
</linearGradient>
<linearGradient id="paint20_linear_19_62" x1="102.151" y1="33.1634" x2="99.2434" y2="22.7154" gradientUnits="userSpaceOnUse">
<stop offset="0.0115281" stop-color="#301F5E"/>
<stop offset="1" stop-color="#FAF8FE"/>
</linearGradient>
<linearGradient id="paint21_linear_19_62" x1="102.151" y1="33.1634" x2="99.2434" y2="22.7154" gradientUnits="userSpaceOnUse">
<stop offset="0.0115281" stop-color="#301F5E"/>
<stop offset="1" stop-color="#FAF8FE"/>
</linearGradient>
<linearGradient id="paint22_linear_19_62" x1="1112.74" y1="247.484" x2="1099.86" y2="216.137" gradientUnits="userSpaceOnUse">
<stop offset="0.0115281" stop-color="#301F5E"/>
<stop offset="1" stop-color="#FAF8FE"/>
</linearGradient>
<linearGradient id="paint23_linear_19_62" x1="1087.15" y1="274.163" x2="1084.24" y2="263.715" gradientUnits="userSpaceOnUse">
<stop offset="0.0115281" stop-color="#301F5E"/>
<stop offset="1" stop-color="#FAF8FE"/>
</linearGradient>
<linearGradient id="paint24_linear_19_62" x1="1087.15" y1="274.163" x2="1084.24" y2="263.715" gradientUnits="userSpaceOnUse">
<stop offset="0.0115281" stop-color="#301F5E"/>
<stop offset="1" stop-color="#FAF8FE"/>
</linearGradient>
<linearGradient id="paint25_linear_19_62" x1="1067.12" y1="264.391" x2="1062.4" y2="247.413" gradientUnits="userSpaceOnUse">
<stop offset="0.0115281" stop-color="#301F5E"/>
<stop offset="1" stop-color="#FAF8FE"/>
</linearGradient>
<linearGradient id="paint26_linear_19_62" x1="1067.12" y1="264.391" x2="1062.4" y2="247.413" gradientUnits="userSpaceOnUse">
<stop offset="0.0115281" stop-color="#301F5E"/>
<stop offset="1" stop-color="#FAF8FE"/>
</linearGradient>
<linearGradient id="paint27_linear_19_62" x1="1058.15" y1="229.163" x2="1055.24" y2="218.715" gradientUnits="userSpaceOnUse">
<stop offset="0.0115281" stop-color="#301F5E"/>
<stop offset="1" stop-color="#FAF8FE"/>
</linearGradient>
<linearGradient id="paint28_linear_19_62" x1="1058.15" y1="229.163" x2="1055.24" y2="218.715" gradientUnits="userSpaceOnUse">
<stop offset="0.0115281" stop-color="#301F5E"/>
<stop offset="1" stop-color="#FAF8FE"/>
</linearGradient>
<linearGradient id="paint29_linear_19_62" x1="1102.12" y1="222.391" x2="1097.4" y2="205.413" gradientUnits="userSpaceOnUse">
<stop offset="0.0115281" stop-color="#301F5E"/>
<stop offset="1" stop-color="#FAF8FE"/>
</linearGradient>
<linearGradient id="paint30_linear_19_62" x1="1102.12" y1="222.391" x2="1097.4" y2="205.413" gradientUnits="userSpaceOnUse">
<stop offset="0.0115281" stop-color="#301F5E"/>
<stop offset="1" stop-color="#FAF8FE"/>
</linearGradient>
<linearGradient id="paint31_linear_19_62" x1="1108.15" y1="246.163" x2="1105.24" y2="235.715" gradientUnits="userSpaceOnUse">
<stop offset="0.0115281" stop-color="#301F5E"/>
<stop offset="1" stop-color="#FAF8FE"/>
</linearGradient>
<linearGradient id="paint32_linear_19_62" x1="1108.15" y1="246.163" x2="1105.24" y2="235.715" gradientUnits="userSpaceOnUse">
<stop offset="0.0115281" stop-color="#301F5E"/>
<stop offset="1" stop-color="#FAF8FE"/>
</linearGradient>
<linearGradient id="paint33_linear_19_62" x1="1279.74" y1="36.4838" x2="1266.86" y2="5.13738" gradientUnits="userSpaceOnUse">
<stop offset="0.0115281" stop-color="#301F5E"/>
<stop offset="1" stop-color="#FAF8FE"/>
</linearGradient>
<linearGradient id="paint34_linear_19_62" x1="1254.15" y1="63.1634" x2="1251.24" y2="52.7154" gradientUnits="userSpaceOnUse">
<stop offset="0.0115281" stop-color="#301F5E"/>
<stop offset="1" stop-color="#FAF8FE"/>
</linearGradient>
<linearGradient id="paint35_linear_19_62" x1="1254.15" y1="63.1634" x2="1251.24" y2="52.7154" gradientUnits="userSpaceOnUse">
<stop offset="0.0115281" stop-color="#301F5E"/>
<stop offset="1" stop-color="#FAF8FE"/>
</linearGradient>
<linearGradient id="paint36_linear_19_62" x1="1234.12" y1="53.3905" x2="1229.4" y2="36.4125" gradientUnits="userSpaceOnUse">
<stop offset="0.0115281" stop-color="#301F5E"/>
<stop offset="1" stop-color="#FAF8FE"/>
</linearGradient>
<linearGradient id="paint37_linear_19_62" x1="1234.12" y1="53.3905" x2="1229.4" y2="36.4125" gradientUnits="userSpaceOnUse">
<stop offset="0.0115281" stop-color="#301F5E"/>
<stop offset="1" stop-color="#FAF8FE"/>
</linearGradient>
<linearGradient id="paint38_linear_19_62" x1="1225.15" y1="18.1634" x2="1222.24" y2="7.71539" gradientUnits="userSpaceOnUse">
<stop offset="0.0115281" stop-color="#301F5E"/>
<stop offset="1" stop-color="#FAF8FE"/>
</linearGradient>
<linearGradient id="paint39_linear_19_62" x1="1225.15" y1="18.1634" x2="1222.24" y2="7.71539" gradientUnits="userSpaceOnUse">
<stop offset="0.0115281" stop-color="#301F5E"/>
<stop offset="1" stop-color="#FAF8FE"/>
</linearGradient>
<linearGradient id="paint40_linear_19_62" x1="1269.12" y1="11.3905" x2="1264.4" y2="-5.5875" gradientUnits="userSpaceOnUse">
<stop offset="0.0115281" stop-color="#301F5E"/>
<stop offset="1" stop-color="#FAF8FE"/>
</linearGradient>
<linearGradient id="paint41_linear_19_62" x1="1269.12" y1="11.3905" x2="1264.4" y2="-5.5875" gradientUnits="userSpaceOnUse">
<stop offset="0.0115281" stop-color="#301F5E"/>
<stop offset="1" stop-color="#FAF8FE"/>
</linearGradient>
<linearGradient id="paint42_linear_19_62" x1="1275.15" y1="35.1634" x2="1272.24" y2="24.7154" gradientUnits="userSpaceOnUse">
<stop offset="0.0115281" stop-color="#301F5E"/>
<stop offset="1" stop-color="#FAF8FE"/>
</linearGradient>
<linearGradient id="paint43_linear_19_62" x1="1275.15" y1="35.1634" x2="1272.24" y2="24.7154" gradientUnits="userSpaceOnUse">
<stop offset="0.0115281" stop-color="#301F5E"/>
<stop offset="1" stop-color="#FAF8FE"/>
</linearGradient>
<clipPath id="clip0_19_62">
<rect width="1356" height="743" fill="white" transform="translate(0 31)"/>
</clipPath>
</defs>
</svg>
