<svg       className="w-full h-auto"
      preserveAspectRatio="xMidYMax meet"
      viewBox="0 0 1356 798"
      fill="none">
<g id="curve-balls-1">
<g id="Group 238335" clip-path="url(#clip0_19_62)">
<g id="Group 238381">
<path id="Vector" d="M594.637 -790.873C625.336 -808.375 662.994 -808.375 693.693 -790.873L1180.86 -513.135C1212.07 -495.344 1231.34 -462.183 1231.34 -426.261V127.042C1231.34 162.964 1212.07 196.124 1180.86 213.915L693.693 491.654C662.994 509.156 625.336 509.156 594.637 491.654L107.472 213.915C76.2662 196.124 57 162.964 57 127.042V-426.261C57 -462.183 76.2662 -495.344 107.472 -513.135L594.637 -790.873Z" stroke="white" stroke-opacity="0.15" stroke-width="25"/>
<path id="Vector_2" d="M594.637 -790.873C625.336 -808.375 662.994 -808.375 693.693 -790.873L1180.86 -513.135C1212.07 -495.344 1231.34 -462.183 1231.34 -426.261V127.042C1231.34 162.964 1212.07 196.124 1180.86 213.915L693.693 491.654C662.994 509.156 625.336 509.156 594.637 491.654L107.472 213.915C76.2662 196.124 57 162.964 57 127.042V-426.261C57 -462.183 76.2662 -495.344 107.472 -513.135L594.637 -790.873Z" stroke="white" stroke-opacity="0.7" stroke-width="3"/>
</g>
</g>
<g id="spider">
<path id="Vector 1" d="M327.972 247C546.229 27.7802 712.929 23.7201 958.521 231.5" stroke="#A590CA" stroke-opacity="0.51"/>
<ellipse id="Ellipse 10" cx="958.028" cy="231" rx="1.97201" ry="2" fill="#A590CA"/>
<ellipse id="Ellipse 11" cx="643.493" cy="79" rx="1.97201" ry="2" fill="#A590CA"/>
<ellipse id="Ellipse 12" cx="327.972" cy="247" rx="1.97201" ry="2" fill="#A590CA"/>
</g>
<g id="spider_2">
<path id="Vector 1_2" d="M266.267 214.563C528.565 -61.0474 728.706 -65.9661 1023.31 195.779" stroke="#A590CA" stroke-opacity="0.51"/>
<ellipse id="Ellipse 10_2" cx="1022.72" cy="195.149" rx="2.36756" ry="2.51675" transform="rotate(0.0545204 1022.72 195.149)" fill="#A590CA"/>
<ellipse id="Ellipse 11_2" cx="645.276" cy="3.51705" rx="2.36756" ry="2.51675" transform="rotate(0.0545204 645.276 3.51705)" fill="#A590CA"/>
<ellipse id="Ellipse 12_2" cx="266.268" cy="214.564" rx="2.36756" ry="2.51675" transform="rotate(0.0545204 266.268 214.564)" fill="#A590CA"/>
</g>
<g id="ball2">
<path id="Vector_3" d="M221.734 298C231.408 298 239.25 289.493 239.25 279C239.25 268.507 231.408 260 221.734 260C212.061 260 204.219 268.507 204.219 279C204.219 289.493 212.061 298 221.734 298Z" fill="#B2A0DB" fill-opacity="0.2"/>
<path id="Ellipse 1" d="M233.719 279.5C233.719 286.404 228.56 292 222.195 292C215.831 292 210.672 286.404 210.672 279.5C210.672 272.596 215.831 267 222.195 267C228.56 267 233.719 272.596 233.719 279.5Z" fill="url(#paint0_linear_19_62)"/>
<g id="rotate">
<g id="Group 238382">
<path id="Ellipse 3" d="M221.273 309.5C236.614 309.5 248.969 295.797 248.969 279C248.969 262.203 236.614 248.5 221.273 248.5C205.933 248.5 193.578 262.203 193.578 279C193.578 295.797 205.933 309.5 221.273 309.5Z" stroke="#C8C4E3"/>
<path id="Ellipse 4" d="M222.252 305.112C235.538 304.524 245.799 292.352 245.26 278.01C244.721 263.669 233.58 252.443 220.294 253.031C207.008 253.619 196.747 265.791 197.286 280.132C197.825 294.474 208.966 305.699 222.252 305.112Z" stroke="#B8B5CF" stroke-opacity="0.41"/>
</g>
<g id="Ellipse 5">
<path d="M231.875 307C231.875 309.209 230.224 311 228.188 311C226.151 311 224.5 309.209 224.5 307C224.5 304.791 226.151 303 228.188 303C230.224 303 231.875 304.791 231.875 307Z" fill="url(#paint1_linear_19_62)"/>
<path d="M231.875 307C231.875 309.209 230.224 311 228.188 311C226.151 311 224.5 309.209 224.5 307C224.5 304.791 226.151 303 228.188 303C230.224 303 231.875 304.791 231.875 307Z" fill="url(#paint2_linear_19_62)"/>
</g>
<g id="Ellipse 6">
<path d="M206.984 295.5C206.984 299.09 204.302 302 200.992 302C197.683 302 195 299.09 195 295.5C195 291.91 197.683 289 200.992 289C204.302 289 206.984 291.91 206.984 295.5Z" fill="url(#paint3_linear_19_62)"/>
<path d="M206.984 295.5C206.984 299.09 204.302 302 200.992 302C197.683 302 195 299.09 195 295.5C195 291.91 197.683 289 200.992 289C204.302 289 206.984 291.91 206.984 295.5Z" fill="url(#paint4_linear_19_62)"/>
</g>
<g id="Ellipse 7">
<path d="M205.141 261C205.141 263.209 203.49 265 201.453 265C199.417 265 197.766 263.209 197.766 261C197.766 258.791 199.417 257 201.453 257C203.49 257 205.141 258.791 205.141 261Z" fill="url(#paint5_linear_19_62)"/>
<path d="M205.141 261C205.141 263.209 203.49 265 201.453 265C199.417 265 197.766 263.209 197.766 261C197.766 258.791 199.417 257 201.453 257C203.49 257 205.141 258.791 205.141 261Z" fill="url(#paint6_linear_19_62)"/>
</g>
<g id="Ellipse 8">
<path d="M239.25 253.5C239.25 257.09 236.567 260 233.258 260C229.948 260 227.266 257.09 227.266 253.5C227.266 249.91 229.948 247 233.258 247C236.567 247 239.25 249.91 239.25 253.5Z" fill="url(#paint7_linear_19_62)"/>
<path d="M239.25 253.5C239.25 257.09 236.567 260 233.258 260C229.948 260 227.266 257.09 227.266 253.5C227.266 249.91 229.948 247 233.258 247C236.567 247 239.25 249.91 239.25 253.5Z" fill="url(#paint8_linear_19_62)"/>
</g>
<g id="Ellipse 9">
<path d="M251.234 278C251.234 280.209 249.583 282 247.547 282C245.51 282 243.859 280.209 243.859 278C243.859 275.791 245.51 274 247.547 274C249.583 274 251.234 275.791 251.234 278Z" fill="url(#paint9_linear_19_62)"/>
<path d="M251.234 278C251.234 280.209 249.583 282 247.547 282C245.51 282 243.859 280.209 243.859 278C243.859 275.791 245.51 274 247.547 274C249.583 274 251.234 275.791 251.234 278Z" fill="url(#paint10_linear_19_62)"/>
</g>
</g>
</g>
<g id="ball1">
<path id="Vector_4" d="M57.7344 89C67.408 89 75.25 80.4934 75.25 70C75.25 59.5066 67.408 51 57.7344 51C48.0608 51 40.2188 59.5066 40.2188 70C40.2188 80.4934 48.0608 89 57.7344 89Z" fill="#B2A0DB" fill-opacity="0.2"/>
<path id="Ellipse 1_2" d="M69.7187 70.5C69.7187 77.4036 64.5595 83 58.1953 83C51.8311 83 46.6719 77.4036 46.6719 70.5C46.6719 63.5964 51.8311 58 58.1953 58C64.5595 58 69.7187 63.5964 69.7187 70.5Z" fill="url(#paint11_linear_19_62)"/>
<g id="rotate_2">
<g id="Group 238382_2">
<path id="Ellipse 3_2" d="M57.2734 100.5C72.6142 100.5 84.9688 86.7974 84.9688 70C84.9688 53.2026 72.6142 39.5 57.2734 39.5C41.9327 39.5 29.5781 53.2026 29.5781 70C29.5781 86.7974 41.9327 100.5 57.2734 100.5Z" stroke="#C8C4E3"/>
<path id="Ellipse 4_2" d="M58.2519 96.1116C71.5381 95.5239 81.7992 83.3518 81.2601 69.0103C80.7209 54.6688 69.5802 43.4435 56.294 44.0312C43.0078 44.6189 32.7467 56.791 33.2858 71.1325C33.825 85.474 44.9657 96.6993 58.2519 96.1116Z" stroke="#B8B5CF" stroke-opacity="0.41"/>
</g>
<g id="Ellipse 5_2">
<path d="M67.875 98C67.875 100.209 66.2241 102 64.1875 102C62.1509 102 60.5 100.209 60.5 98C60.5 95.7909 62.1509 94 64.1875 94C66.2241 94 67.875 95.7909 67.875 98Z" fill="url(#paint12_linear_19_62)"/>
<path d="M67.875 98C67.875 100.209 66.2241 102 64.1875 102C62.1509 102 60.5 100.209 60.5 98C60.5 95.7909 62.1509 94 64.1875 94C66.2241 94 67.875 95.7909 67.875 98Z" fill="url(#paint13_linear_19_62)"/>
</g>
<g id="Ellipse 6_2">
<path d="M42.9844 86.5C42.9844 90.0899 40.3016 93 36.9922 93C33.6828 93 31 90.0899 31 86.5C31 82.9101 33.6828 80 36.9922 80C40.3016 80 42.9844 82.9101 42.9844 86.5Z" fill="url(#paint14_linear_19_62)"/>
<path d="M42.9844 86.5C42.9844 90.0899 40.3016 93 36.9922 93C33.6828 93 31 90.0899 31 86.5C31 82.9101 33.6828 80 36.9922 80C40.3016 80 42.9844 82.9101 42.9844 86.5Z" fill="url(#paint15_linear_19_62)"/>
</g>
<g id="Ellipse 7_2">
<path d="M41.1406 52C41.1406 54.2091 39.4897 56 37.4531 56C35.4166 56 33.7656 54.2091 33.7656 52C33.7656 49.7909 35.4166 48 37.4531 48C39.4897 48 41.1406 49.7909 41.1406 52Z" fill="url(#paint16_linear_19_62)"/>
<path d="M41.1406 52C41.1406 54.2091 39.4897 56 37.4531 56C35.4166 56 33.7656 54.2091 33.7656 52C33.7656 49.7909 35.4166 48 37.4531 48C39.4897 48 41.1406 49.7909 41.1406 52Z" fill="url(#paint17_linear_19_62)"/>
</g>
<g id="Ellipse 8_2">
<path d="M75.25 44.5C75.25 48.0899 72.5672 51 69.2578 51C65.9484 51 63.2656 48.0899 63.2656 44.5C63.2656 40.9101 65.9484 38 69.2578 38C72.5672 38 75.25 40.9101 75.25 44.5Z" fill="url(#paint18_linear_19_62)"/>
<path d="M75.25 44.5C75.25 48.0899 72.5672 51 69.2578 51C65.9484 51 63.2656 48.0899 63.2656 44.5C63.2656 40.9101 65.9484 38 69.2578 38C72.5672 38 75.25 40.9101 75.25 44.5Z" fill="url(#paint19_linear_19_62)"/>
</g>
<g id="Ellipse 9_2">
<path d="M87.2344 69C87.2344 71.2091 85.5834 73 83.5469 73C81.5103 73 79.8594 71.2091 79.8594 69C79.8594 66.7909 81.5103 65 83.5469 65C85.5834 65 87.2344 66.7909 87.2344 69Z" fill="url(#paint20_linear_19_62)"/>
<path d="M87.2344 69C87.2344 71.2091 85.5834 73 83.5469 73C81.5103 73 79.8594 71.2091 79.8594 69C79.8594 66.7909 81.5103 65 83.5469 65C85.5834 65 87.2344 66.7909 87.2344 69Z" fill="url(#paint21_linear_19_62)"/>
</g>
</g>
</g>
<g id="ball3">
<path id="Vector_5" d="M1074.73 293C1084.41 293 1092.25 284.493 1092.25 274C1092.25 263.507 1084.41 255 1074.73 255C1065.06 255 1057.22 263.507 1057.22 274C1057.22 284.493 1065.06 293 1074.73 293Z" fill="#B2A0DB" fill-opacity="0.2"/>
<path id="Ellipse 1_3" d="M1086.72 274.5C1086.72 281.404 1081.56 287 1075.2 287C1068.83 287 1063.67 281.404 1063.67 274.5C1063.67 267.596 1068.83 262 1075.2 262C1081.56 262 1086.72 267.596 1086.72 274.5Z" fill="url(#paint22_linear_19_62)"/>
<g id="rotate_3">
<g id="Group 238382_3">
<path id="Ellipse 3_3" d="M1074.27 304.5C1089.61 304.5 1101.97 290.797 1101.97 274C1101.97 257.203 1089.61 243.5 1074.27 243.5C1058.93 243.5 1046.58 257.203 1046.58 274C1046.58 290.797 1058.93 304.5 1074.27 304.5Z" stroke="#C8C4E3"/>
<path id="Ellipse 4_3" d="M1075.25 300.112C1088.54 299.524 1098.8 287.352 1098.26 273.01C1097.72 258.669 1086.58 247.443 1073.29 248.031C1060.01 248.619 1049.75 260.791 1050.29 275.132C1050.82 289.474 1061.97 300.699 1075.25 300.112Z" stroke="#B8B5CF" stroke-opacity="0.41"/>
</g>
<g id="Ellipse 5_3">
<path d="M1084.88 302C1084.88 304.209 1083.22 306 1081.19 306C1079.15 306 1077.5 304.209 1077.5 302C1077.5 299.791 1079.15 298 1081.19 298C1083.22 298 1084.88 299.791 1084.88 302Z" fill="url(#paint23_linear_19_62)"/>
<path d="M1084.88 302C1084.88 304.209 1083.22 306 1081.19 306C1079.15 306 1077.5 304.209 1077.5 302C1077.5 299.791 1079.15 298 1081.19 298C1083.22 298 1084.88 299.791 1084.88 302Z" fill="url(#paint24_linear_19_62)"/>
</g>
<g id="Ellipse 6_3">
<path d="M1059.98 290.5C1059.98 294.09 1057.3 297 1053.99 297C1050.68 297 1048 294.09 1048 290.5C1048 286.91 1050.68 284 1053.99 284C1057.3 284 1059.98 286.91 1059.98 290.5Z" fill="url(#paint25_linear_19_62)"/>
<path d="M1059.98 290.5C1059.98 294.09 1057.3 297 1053.99 297C1050.68 297 1048 294.09 1048 290.5C1048 286.91 1050.68 284 1053.99 284C1057.3 284 1059.98 286.91 1059.98 290.5Z" fill="url(#paint26_linear_19_62)"/>
</g>
<g id="Ellipse 7_3">
<path d="M1058.14 256C1058.14 258.209 1056.49 260 1054.45 260C1052.42 260 1050.77 258.209 1050.77 256C1050.77 253.791 1052.42 252 1054.45 252C1056.49 252 1058.14 253.791 1058.14 256Z" fill="url(#paint27_linear_19_62)"/>
<path d="M1058.14 256C1058.14 258.209 1056.49 260 1054.45 260C1052.42 260 1050.77 258.209 1050.77 256C1050.77 253.791 1052.42 252 1054.45 252C1056.49 252 1058.14 253.791 1058.14 256Z" fill="url(#paint28_linear_19_62)"/>
</g>
<g id="Ellipse 8_3">
<path d="M1092.25 248.5C1092.25 252.09 1089.57 255 1086.26 255C1082.95 255 1080.27 252.09 1080.27 248.5C1080.27 244.91 1082.95 242 1086.26 242C1089.57 242 1092.25 244.91 1092.25 248.5Z" fill="url(#paint29_linear_19_62)"/>
<path d="M1092.25 248.5C1092.25 252.09 1089.57 255 1086.26 255C1082.95 255 1080.27 252.09 1080.27 248.5C1080.27 244.91 1082.95 242 1086.26 242C1089.57 242 1092.25 244.91 1092.25 248.5Z" fill="url(#paint30_linear_19_62)"/>
</g>
<g id="Ellipse 9_3">
<path d="M1104.23 273C1104.23 275.209 1102.58 277 1100.55 277C1098.51 277 1096.86 275.209 1096.86 273C1096.86 270.791 1098.51 269 1100.55 269C1102.58 269 1104.23 270.791 1104.23 273Z" fill="url(#paint31_linear_19_62)"/>
<path d="M1104.23 273C1104.23 275.209 1102.58 277 1100.55 277C1098.51 277 1096.86 275.209 1096.86 273C1096.86 270.791 1098.51 269 1100.55 269C1102.58 269 1104.23 270.791 1104.23 273Z" fill="url(#paint32_linear_19_62)"/>
</g>
</g>
</g>
<g id="ball4">
<path id="Vector_6" d="M1230.73 86C1240.41 86 1248.25 77.4934 1248.25 67C1248.25 56.5066 1240.41 48 1230.73 48C1221.06 48 1213.22 56.5066 1213.22 67C1213.22 77.4934 1221.06 86 1230.73 86Z" fill="#B2A0DB" fill-opacity="0.2"/>
<path id="Ellipse 1_4" d="M1242.72 67.5C1242.72 74.4036 1237.56 80 1231.2 80C1224.83 80 1219.67 74.4036 1219.67 67.5C1219.67 60.5964 1224.83 55 1231.2 55C1237.56 55 1242.72 60.5964 1242.72 67.5Z" fill="url(#paint33_linear_19_62)"/>
<g id="rotate_4">
<g id="Group 238382_4">
<path id="Ellipse 3_4" d="M1230.27 97.5C1245.61 97.5 1257.97 83.7974 1257.97 67C1257.97 50.2026 1245.61 36.5 1230.27 36.5C1214.93 36.5 1202.58 50.2026 1202.58 67C1202.58 83.7974 1214.93 97.5 1230.27 97.5Z" stroke="#C8C4E3"/>
<path id="Ellipse 4_4" d="M1231.25 93.1116C1244.54 92.5239 1254.8 80.3518 1254.26 66.0103C1253.72 51.6688 1242.58 40.4435 1229.29 41.0312C1216.01 41.6189 1205.75 53.791 1206.29 68.1325C1206.82 82.474 1217.97 93.6993 1231.25 93.1116Z" stroke="#B8B5CF" stroke-opacity="0.41"/>
</g>
<g id="Ellipse 5_4">
<path d="M1240.88 95C1240.88 97.2091 1239.22 99 1237.19 99C1235.15 99 1233.5 97.2091 1233.5 95C1233.5 92.7909 1235.15 91 1237.19 91C1239.22 91 1240.88 92.7909 1240.88 95Z" fill="url(#paint34_linear_19_62)"/>
<path d="M1240.88 95C1240.88 97.2091 1239.22 99 1237.19 99C1235.15 99 1233.5 97.2091 1233.5 95C1233.5 92.7909 1235.15 91 1237.19 91C1239.22 91 1240.88 92.7909 1240.88 95Z" fill="url(#paint35_linear_19_62)"/>
</g>
<g id="Ellipse 6_4">
<path d="M1215.98 83.5C1215.98 87.0899 1213.3 90 1209.99 90C1206.68 90 1204 87.0899 1204 83.5C1204 79.9101 1206.68 77 1209.99 77C1213.3 77 1215.98 79.9101 1215.98 83.5Z" fill="url(#paint36_linear_19_62)"/>
<path d="M1215.98 83.5C1215.98 87.0899 1213.3 90 1209.99 90C1206.68 90 1204 87.0899 1204 83.5C1204 79.9101 1206.68 77 1209.99 77C1213.3 77 1215.98 79.9101 1215.98 83.5Z" fill="url(#paint37_linear_19_62)"/>
</g>
<g id="Ellipse 7_4">
<path d="M1214.14 49C1214.14 51.2091 1212.49 53 1210.45 53C1208.42 53 1206.77 51.2091 1206.77 49C1206.77 46.7909 1208.42 45 1210.45 45C1212.49 45 1214.14 46.7909 1214.14 49Z" fill="url(#paint38_linear_19_62)"/>
<path d="M1214.14 49C1214.14 51.2091 1212.49 53 1210.45 53C1208.42 53 1206.77 51.2091 1206.77 49C1206.77 46.7909 1208.42 45 1210.45 45C1212.49 45 1214.14 46.7909 1214.14 49Z" fill="url(#paint39_linear_19_62)"/>
</g>
<g id="Ellipse 8_4">
<path d="M1248.25 41.5C1248.25 45.0899 1245.57 48 1242.26 48C1238.95 48 1236.27 45.0899 1236.27 41.5C1236.27 37.9101 1238.95 35 1242.26 35C1245.57 35 1248.25 37.9101 1248.25 41.5Z" fill="url(#paint40_linear_19_62)"/>
<path d="M1248.25 41.5C1248.25 45.0899 1245.57 48 1242.26 48C1238.95 48 1236.27 45.0899 1236.27 41.5C1236.27 37.9101 1238.95 35 1242.26 35C1245.57 35 1248.25 37.9101 1248.25 41.5Z" fill="url(#paint41_linear_19_62)"/>
</g>
<g id="Ellipse 9_4">
<path d="M1260.23 66C1260.23 68.2091 1258.58 70 1256.55 70C1254.51 70 1252.86 68.2091 1252.86 66C1252.86 63.7909 1254.51 62 1256.55 62C1258.58 62 1260.23 63.7909 1260.23 66Z" fill="url(#paint42_linear_19_62)"/>
<path d="M1260.23 66C1260.23 68.2091 1258.58 70 1256.55 70C1254.51 70 1252.86 68.2091 1252.86 66C1252.86 63.7909 1254.51 62 1256.55 62C1258.58 62 1260.23 63.7909 1260.23 66Z" fill="url(#paint43_linear_19_62)"/>
</g>
</g>
</g>
</g>
<defs>
<linearGradient id="paint0_linear_19_62" x1="267.592" y1="282.484" x2="253.966" y2="251.918" gradientUnits="userSpaceOnUse">
<stop offset="0.0115281" stop-color="#301F5E"/>
<stop offset="1" stop-color="#FAF8FE"/>
</linearGradient>
<linearGradient id="paint1_linear_19_62" x1="242.154" y1="308.163" x2="239.04" y2="297.846" gradientUnits="userSpaceOnUse">
<stop offset="0.0115281" stop-color="#301F5E"/>
<stop offset="1" stop-color="#FAF8FE"/>
</linearGradient>
<linearGradient id="paint2_linear_19_62" x1="242.154" y1="308.163" x2="239.04" y2="297.846" gradientUnits="userSpaceOnUse">
<stop offset="0.0115281" stop-color="#301F5E"/>
<stop offset="1" stop-color="#FAF8FE"/>
</linearGradient>
<linearGradient id="paint3_linear_19_62" x1="223.688" y1="297.391" x2="218.628" y2="280.625" gradientUnits="userSpaceOnUse">
<stop offset="0.0115281" stop-color="#301F5E"/>
<stop offset="1" stop-color="#FAF8FE"/>
</linearGradient>
<linearGradient id="paint4_linear_19_62" x1="223.688" y1="297.391" x2="218.628" y2="280.625" gradientUnits="userSpaceOnUse">
<stop offset="0.0115281" stop-color="#301F5E"/>
<stop offset="1" stop-color="#FAF8FE"/>
</linearGradient>
<linearGradient id="paint5_linear_19_62" x1="215.42" y1="262.163" x2="212.306" y2="251.846" gradientUnits="userSpaceOnUse">
<stop offset="0.0115281" stop-color="#301F5E"/>
<stop offset="1" stop-color="#FAF8FE"/>
</linearGradient>
<linearGradient id="paint6_linear_19_62" x1="215.42" y1="262.163" x2="212.306" y2="251.846" gradientUnits="userSpaceOnUse">
<stop offset="0.0115281" stop-color="#301F5E"/>
<stop offset="1" stop-color="#FAF8FE"/>
</linearGradient>
<linearGradient id="paint7_linear_19_62" x1="255.954" y1="255.391" x2="250.894" y2="238.625" gradientUnits="userSpaceOnUse">
<stop offset="0.0115281" stop-color="#301F5E"/>
<stop offset="1" stop-color="#FAF8FE"/>
</linearGradient>
<linearGradient id="paint8_linear_19_62" x1="255.954" y1="255.391" x2="250.894" y2="238.625" gradientUnits="userSpaceOnUse">
<stop offset="0.0115281" stop-color="#301F5E"/>
<stop offset="1" stop-color="#FAF8FE"/>
</linearGradient>
<linearGradient id="paint9_linear_19_62" x1="261.514" y1="279.163" x2="258.4" y2="268.846" gradientUnits="userSpaceOnUse">
<stop offset="0.0115281" stop-color="#301F5E"/>
<stop offset="1" stop-color="#FAF8FE"/>
</linearGradient>
<linearGradient id="paint10_linear_19_62" x1="261.514" y1="279.163" x2="258.4" y2="268.846" gradientUnits="userSpaceOnUse">
<stop offset="0.0115281" stop-color="#301F5E"/>
<stop offset="1" stop-color="#FAF8FE"/>
</linearGradient>
<linearGradient id="paint11_linear_19_62" x1="103.592" y1="73.4838" x2="89.966" y2="42.9177" gradientUnits="userSpaceOnUse">
<stop offset="0.0115281" stop-color="#301F5E"/>
<stop offset="1" stop-color="#FAF8FE"/>
</linearGradient>
<linearGradient id="paint12_linear_19_62" x1="78.1544" y1="99.1634" x2="75.0404" y2="88.8464" gradientUnits="userSpaceOnUse">
<stop offset="0.0115281" stop-color="#301F5E"/>
<stop offset="1" stop-color="#FAF8FE"/>
</linearGradient>
<linearGradient id="paint13_linear_19_62" x1="78.1544" y1="99.1634" x2="75.0404" y2="88.8464" gradientUnits="userSpaceOnUse">
<stop offset="0.0115281" stop-color="#301F5E"/>
<stop offset="1" stop-color="#FAF8FE"/>
</linearGradient>
<linearGradient id="paint14_linear_19_62" x1="59.6884" y1="88.3905" x2="54.6282" y2="71.6253" gradientUnits="userSpaceOnUse">
<stop offset="0.0115281" stop-color="#301F5E"/>
<stop offset="1" stop-color="#FAF8FE"/>
</linearGradient>
<linearGradient id="paint15_linear_19_62" x1="59.6884" y1="88.3905" x2="54.6282" y2="71.6253" gradientUnits="userSpaceOnUse">
<stop offset="0.0115281" stop-color="#301F5E"/>
<stop offset="1" stop-color="#FAF8FE"/>
</linearGradient>
<linearGradient id="paint16_linear_19_62" x1="51.42" y1="53.1634" x2="48.3061" y2="42.8464" gradientUnits="userSpaceOnUse">
<stop offset="0.0115281" stop-color="#301F5E"/>
<stop offset="1" stop-color="#FAF8FE"/>
</linearGradient>
<linearGradient id="paint17_linear_19_62" x1="51.42" y1="53.1634" x2="48.3061" y2="42.8464" gradientUnits="userSpaceOnUse">
<stop offset="0.0115281" stop-color="#301F5E"/>
<stop offset="1" stop-color="#FAF8FE"/>
</linearGradient>
<linearGradient id="paint18_linear_19_62" x1="91.954" y1="46.3905" x2="86.8938" y2="29.6253" gradientUnits="userSpaceOnUse">
<stop offset="0.0115281" stop-color="#301F5E"/>
<stop offset="1" stop-color="#FAF8FE"/>
</linearGradient>
<linearGradient id="paint19_linear_19_62" x1="91.954" y1="46.3905" x2="86.8938" y2="29.6253" gradientUnits="userSpaceOnUse">
<stop offset="0.0115281" stop-color="#301F5E"/>
<stop offset="1" stop-color="#FAF8FE"/>
</linearGradient>
<linearGradient id="paint20_linear_19_62" x1="97.5138" y1="70.1634" x2="94.3998" y2="59.8464" gradientUnits="userSpaceOnUse">
<stop offset="0.0115281" stop-color="#301F5E"/>
<stop offset="1" stop-color="#FAF8FE"/>
</linearGradient>
<linearGradient id="paint21_linear_19_62" x1="97.5138" y1="70.1634" x2="94.3998" y2="59.8464" gradientUnits="userSpaceOnUse">
<stop offset="0.0115281" stop-color="#301F5E"/>
<stop offset="1" stop-color="#FAF8FE"/>
</linearGradient>
<linearGradient id="paint22_linear_19_62" x1="1120.59" y1="277.484" x2="1106.97" y2="246.918" gradientUnits="userSpaceOnUse">
<stop offset="0.0115281" stop-color="#301F5E"/>
<stop offset="1" stop-color="#FAF8FE"/>
</linearGradient>
<linearGradient id="paint23_linear_19_62" x1="1095.15" y1="303.163" x2="1092.04" y2="292.846" gradientUnits="userSpaceOnUse">
<stop offset="0.0115281" stop-color="#301F5E"/>
<stop offset="1" stop-color="#FAF8FE"/>
</linearGradient>
<linearGradient id="paint24_linear_19_62" x1="1095.15" y1="303.163" x2="1092.04" y2="292.846" gradientUnits="userSpaceOnUse">
<stop offset="0.0115281" stop-color="#301F5E"/>
<stop offset="1" stop-color="#FAF8FE"/>
</linearGradient>
<linearGradient id="paint25_linear_19_62" x1="1076.69" y1="292.391" x2="1071.63" y2="275.625" gradientUnits="userSpaceOnUse">
<stop offset="0.0115281" stop-color="#301F5E"/>
<stop offset="1" stop-color="#FAF8FE"/>
</linearGradient>
<linearGradient id="paint26_linear_19_62" x1="1076.69" y1="292.391" x2="1071.63" y2="275.625" gradientUnits="userSpaceOnUse">
<stop offset="0.0115281" stop-color="#301F5E"/>
<stop offset="1" stop-color="#FAF8FE"/>
</linearGradient>
<linearGradient id="paint27_linear_19_62" x1="1068.42" y1="257.163" x2="1065.31" y2="246.846" gradientUnits="userSpaceOnUse">
<stop offset="0.0115281" stop-color="#301F5E"/>
<stop offset="1" stop-color="#FAF8FE"/>
</linearGradient>
<linearGradient id="paint28_linear_19_62" x1="1068.42" y1="257.163" x2="1065.31" y2="246.846" gradientUnits="userSpaceOnUse">
<stop offset="0.0115281" stop-color="#301F5E"/>
<stop offset="1" stop-color="#FAF8FE"/>
</linearGradient>
<linearGradient id="paint29_linear_19_62" x1="1108.95" y1="250.391" x2="1103.89" y2="233.625" gradientUnits="userSpaceOnUse">
<stop offset="0.0115281" stop-color="#301F5E"/>
<stop offset="1" stop-color="#FAF8FE"/>
</linearGradient>
<linearGradient id="paint30_linear_19_62" x1="1108.95" y1="250.391" x2="1103.89" y2="233.625" gradientUnits="userSpaceOnUse">
<stop offset="0.0115281" stop-color="#301F5E"/>
<stop offset="1" stop-color="#FAF8FE"/>
</linearGradient>
<linearGradient id="paint31_linear_19_62" x1="1114.51" y1="274.163" x2="1111.4" y2="263.846" gradientUnits="userSpaceOnUse">
<stop offset="0.0115281" stop-color="#301F5E"/>
<stop offset="1" stop-color="#FAF8FE"/>
</linearGradient>
<linearGradient id="paint32_linear_19_62" x1="1114.51" y1="274.163" x2="1111.4" y2="263.846" gradientUnits="userSpaceOnUse">
<stop offset="0.0115281" stop-color="#301F5E"/>
<stop offset="1" stop-color="#FAF8FE"/>
</linearGradient>
<linearGradient id="paint33_linear_19_62" x1="1276.59" y1="70.4838" x2="1262.97" y2="39.9177" gradientUnits="userSpaceOnUse">
<stop offset="0.0115281" stop-color="#301F5E"/>
<stop offset="1" stop-color="#FAF8FE"/>
</linearGradient>
<linearGradient id="paint34_linear_19_62" x1="1251.15" y1="96.1634" x2="1248.04" y2="85.8464" gradientUnits="userSpaceOnUse">
<stop offset="0.0115281" stop-color="#301F5E"/>
<stop offset="1" stop-color="#FAF8FE"/>
</linearGradient>
<linearGradient id="paint35_linear_19_62" x1="1251.15" y1="96.1634" x2="1248.04" y2="85.8464" gradientUnits="userSpaceOnUse">
<stop offset="0.0115281" stop-color="#301F5E"/>
<stop offset="1" stop-color="#FAF8FE"/>
</linearGradient>
<linearGradient id="paint36_linear_19_62" x1="1232.69" y1="85.3905" x2="1227.63" y2="68.6253" gradientUnits="userSpaceOnUse">
<stop offset="0.0115281" stop-color="#301F5E"/>
<stop offset="1" stop-color="#FAF8FE"/>
</linearGradient>
<linearGradient id="paint37_linear_19_62" x1="1232.69" y1="85.3905" x2="1227.63" y2="68.6253" gradientUnits="userSpaceOnUse">
<stop offset="0.0115281" stop-color="#301F5E"/>
<stop offset="1" stop-color="#FAF8FE"/>
</linearGradient>
<linearGradient id="paint38_linear_19_62" x1="1224.42" y1="50.1634" x2="1221.31" y2="39.8464" gradientUnits="userSpaceOnUse">
<stop offset="0.0115281" stop-color="#301F5E"/>
<stop offset="1" stop-color="#FAF8FE"/>
</linearGradient>
<linearGradient id="paint39_linear_19_62" x1="1224.42" y1="50.1634" x2="1221.31" y2="39.8464" gradientUnits="userSpaceOnUse">
<stop offset="0.0115281" stop-color="#301F5E"/>
<stop offset="1" stop-color="#FAF8FE"/>
</linearGradient>
<linearGradient id="paint40_linear_19_62" x1="1264.95" y1="43.3905" x2="1259.89" y2="26.6253" gradientUnits="userSpaceOnUse">
<stop offset="0.0115281" stop-color="#301F5E"/>
<stop offset="1" stop-color="#FAF8FE"/>
</linearGradient>
<linearGradient id="paint41_linear_19_62" x1="1264.95" y1="43.3905" x2="1259.89" y2="26.6253" gradientUnits="userSpaceOnUse">
<stop offset="0.0115281" stop-color="#301F5E"/>
<stop offset="1" stop-color="#FAF8FE"/>
</linearGradient>
<linearGradient id="paint42_linear_19_62" x1="1270.51" y1="67.1634" x2="1267.4" y2="56.8464" gradientUnits="userSpaceOnUse">
<stop offset="0.0115281" stop-color="#301F5E"/>
<stop offset="1" stop-color="#FAF8FE"/>
</linearGradient>
<linearGradient id="paint43_linear_19_62" x1="1270.51" y1="67.1634" x2="1267.4" y2="56.8464" gradientUnits="userSpaceOnUse">
<stop offset="0.0115281" stop-color="#301F5E"/>
<stop offset="1" stop-color="#FAF8FE"/>
</linearGradient>
<clipPath id="clip0_19_62">
<rect width="1356" height="743" fill="white" transform="translate(0 67)"/>
</clipPath>
</defs>
</svg>
